<?xml version="1.0" encoding="iso-8859-1"?>
<!-- Generator: Adobe Illustrator 18.0.0, SVG Export Plug-In . SVG Version: 6.00 Build 0)  -->
<!DOCTYPE svg PUBLIC "-//W3C//DTD SVG 1.1//EN" "http://www.w3.org/Graphics/SVG/1.1/DTD/svg11.dtd">
<svg version="1.1" id="Capa_1" xmlns="http://www.w3.org/2000/svg" xmlns:xlink="http://www.w3.org/1999/xlink" x="0px" y="0px"
	 viewBox="0 0 447 447" style="enable-background:new 0 0 447 447;" xml:space="preserve">
<rect x="133.615" y="112.69" style="fill:#FCF4DE;" width="179.77" height="86.94"/>
<path style="fill:#E77200;" d="M323.825,26.5V33h-53v-6.5c0-14.63,11.87-26.5,26.5-26.5C311.965,0,323.825,11.87,323.825,26.5z"/>
<polygon style="fill:#7C6655;" points="323.825,33 323.825,78 319.555,78 270.825,78 270.825,33 "/>
<circle style="fill:#7C6655;" cx="293.015" cy="391.94" r="20.37"/>
<circle style="fill:#7C6655;" cx="223.505" cy="391.94" r="20.37"/>
<circle style="fill:#7C6655;" cx="153.985" cy="391.94" r="20.37"/>
<circle style="fill:#7C6655;" cx="153.985" cy="320.57" r="20.37"/>
<circle style="fill:#7C6655;" cx="223.505" cy="320.57" r="20.37"/>
<circle style="fill:#7C6655;" cx="293.015" cy="320.57" r="20.37"/>
<circle style="fill:#7C6655;" cx="293.015" cy="249.2" r="20.37"/>
<circle style="fill:#7C6655;" cx="223.505" cy="249.2" r="20.37"/>
<path style="fill:#51B7A6;" d="M348.075,106.52v311.96c0,15.75-12.77,28.52-28.52,28.52h-192.11c-15.75,0-28.52-12.77-28.52-28.52
	V106.52c0-15.75,12.77-28.52,28.52-28.52h143.38h48.73C335.305,78,348.075,90.77,348.075,106.52z M313.385,199.63v-86.94h-6.07
	h-24.82h-90.29h-58.59v86.94h9.13h90.29h24.82H313.385z M313.385,249.2c0-11.25-9.12-20.37-20.37-20.37s-20.37,9.12-20.37,20.37
	c0,11.25,9.12,20.37,20.37,20.37S313.385,260.45,313.385,249.2z M313.385,320.57c0-11.25-9.12-20.37-20.37-20.37
	s-20.37,9.12-20.37,20.37s9.12,20.37,20.37,20.37S313.385,331.82,313.385,320.57z M313.385,391.94c0-11.25-9.12-20.37-20.37-20.37
	s-20.37,9.12-20.37,20.37s9.12,20.37,20.37,20.37S313.385,403.19,313.385,391.94z M243.875,249.2c0-11.25-9.12-20.37-20.37-20.37
	s-20.37,9.12-20.37,20.37c0,11.25,9.12,20.37,20.37,20.37S243.875,260.45,243.875,249.2z M243.875,320.57
	c0-11.25-9.12-20.37-20.37-20.37s-20.37,9.12-20.37,20.37s9.12,20.37,20.37,20.37S243.875,331.82,243.875,320.57z M243.875,391.94
	c0-11.25-9.12-20.37-20.37-20.37s-20.37,9.12-20.37,20.37s9.12,20.37,20.37,20.37S243.875,403.19,243.875,391.94z M174.355,249.2
	c0-11.25-9.12-20.37-20.37-20.37s-20.37,9.12-20.37,20.37c0,11.25,9.12,20.37,20.37,20.37S174.355,260.45,174.355,249.2z
	 M174.355,320.57c0-11.25-9.12-20.37-20.37-20.37s-20.37,9.12-20.37,20.37s9.12,20.37,20.37,20.37S174.355,331.82,174.355,320.57z
	 M174.355,391.94c0-11.25-9.12-20.37-20.37-20.37s-20.37,9.12-20.37,20.37s9.12,20.37,20.37,20.37S174.355,403.19,174.355,391.94z"
	/>
<circle style="fill:#7C6655;" cx="153.985" cy="249.2" r="20.37"/>
<polygon style="fill:#E77200;" points="275.565,124.69 239.185,187.63 148.895,187.63 185.275,124.69 "/>
<polygon style="fill:#E77200;" points="301.385,124.69 301.385,187.63 264.005,187.63 300.385,124.69 "/>
<g>
</g>
<g>
</g>
<g>
</g>
<g>
</g>
<g>
</g>
<g>
</g>
<g>
</g>
<g>
</g>
<g>
</g>
<g>
</g>
<g>
</g>
<g>
</g>
<g>
</g>
<g>
</g>
<g>
</g>
</svg>
