<?xml version="1.0" encoding="iso-8859-1"?>
<!-- Generator: Adobe Illustrator 18.0.0, SVG Export Plug-In . SVG Version: 6.00 Build 0)  -->
<!DOCTYPE svg PUBLIC "-//W3C//DTD SVG 1.1//EN" "http://www.w3.org/Graphics/SVG/1.1/DTD/svg11.dtd">
<svg version="1.1" id="Capa_1" xmlns="http://www.w3.org/2000/svg" xmlns:xlink="http://www.w3.org/1999/xlink" x="0px" y="0px"
	 viewBox="0 0 398.98 398.98" style="enable-background:new 0 0 398.98 398.98;" xml:space="preserve">
<g>
	<polygon style="fill:#E77200;" points="243.73,360.728 155.24,360.728 155.6,359.009 158.69,344.009 165.98,308.739 
		169.49,291.739 229.49,291.739 233,308.739 240.28,344.009 243.38,359.009 	"/>
	<path style="fill:#E77200;" d="M398.98,44.339v233.81c0,7.5-6.09,13.59-13.59,13.59h-155.9h-60H13.59
		c-7.51,0-13.59-6.09-13.59-13.59V44.339c0-7.51,6.08-13.59,13.59-13.59h371.8C392.89,30.749,398.98,36.829,398.98,44.339z
		 M373.98,266.739V55.749H25v210.99H373.98z"/>
	<path style="fill:#C65C05;" d="M229.49,291.739h-60l-3.51,17H233L229.49,291.739z"/>
	<path style="fill:#51B7A6;" d="M373.98,55.749v210.99H25V55.749H373.98z M326.73,136.299l-1.21-20.59l-32.23-31.53l-21.31,3.17
		c-61.34,9.14-133.48,39.78-182.66,77.57l-17.08,13.13l0.31,45.09l13.98,15.17l55.51-37.9l-8.7-36.47
		c13.47-10.69,31.79-20.95,51-29.11c19.22-8.16,39.33-14.22,56.37-16.49l20.2,31.59L326.73,136.299z"/>
	<path style="fill:#88C9B3;" d="M36,255.739V66.749h326.98v188.99H36z"/>
	<path style="fill:#51B7A6;" d="M334.503,139.444L334.503,139.444c0.13,2.214-1.383,4.188-3.555,4.638l-59.025,12.223
		c-1.814,0.376-3.673-0.407-4.671-1.968l-10.938-17.106c-4.782-7.478-13.745-11.156-22.395-9.167
		c-13.328,3.066-27.686,7.867-41.579,13.765c-13.888,5.899-27.31,12.896-38.771,20.359c-7.437,4.843-11.014,13.845-8.954,22.477
		l4.712,19.751c0.43,1.802-0.297,3.683-1.827,4.727l-49.78,33.988c-1.831,1.25-4.303,0.969-5.806-0.662l-0.005-0.006
		c-7.308-7.931-11.399-18.3-11.473-29.085l-0.047-6.787c-0.093-13.571,6.173-26.402,16.932-34.673l0.038-0.03
		c53.286-40.963,116.142-67.651,182.622-77.54l0,0c13.424-1.997,27.009,2.405,36.711,11.896l4.846,4.741
		C329.248,118.529,333.871,128.675,334.503,139.444z"/>
	<path style="fill:#7C6655;" d="M326.503,132.444L326.503,132.444c0.13,2.214-1.383,4.188-3.555,4.638l-59.025,12.223
		c-1.814,0.376-3.673-0.407-4.671-1.968l-10.938-17.106c-4.782-7.478-13.745-11.156-22.395-9.167
		c-13.328,3.066-27.686,7.867-41.579,13.765c-13.888,5.899-27.31,12.896-38.771,20.359c-7.437,4.843-11.014,13.845-8.954,22.477
		l4.712,19.751c0.43,1.802-0.297,3.683-1.827,4.727l-49.78,33.988c-1.831,1.25-4.303,0.969-5.806-0.662l-0.005-0.006
		c-7.308-7.931-11.399-18.3-11.473-29.085l-0.047-6.787c-0.093-13.571,6.173-26.402,16.932-34.673l0.038-0.03
		c53.286-40.963,116.142-67.651,182.622-77.54l0,0c13.424-1.997,27.009,2.405,36.711,11.896l4.846,4.741
		C321.248,111.529,325.871,121.675,326.503,132.444z"/>
	<polygon style="fill:#C65C05;" points="243.38,359.009 155.6,359.009 158.69,344.009 240.28,344.009 	"/>
	<rect x="124.115" y="353.231" style="fill:#E77200;" width="150.743" height="15"/>
</g>
<g>
</g>
<g>
</g>
<g>
</g>
<g>
</g>
<g>
</g>
<g>
</g>
<g>
</g>
<g>
</g>
<g>
</g>
<g>
</g>
<g>
</g>
<g>
</g>
<g>
</g>
<g>
</g>
<g>
</g>
</svg>
