<?xml version="1.0" encoding="iso-8859-1"?>
<!-- Generator: Adobe Illustrator 18.0.0, SVG Export Plug-In . SVG Version: 6.00 Build 0)  -->
<!DOCTYPE svg PUBLIC "-//W3C//DTD SVG 1.1//EN" "http://www.w3.org/Graphics/SVG/1.1/DTD/svg11.dtd">
<svg version="1.1" id="Capa_1" xmlns="http://www.w3.org/2000/svg" xmlns:xlink="http://www.w3.org/1999/xlink" x="0px" y="0px"
	 viewBox="0 0 367.17 367.17" style="enable-background:new 0 0 367.17 367.17;" xml:space="preserve">
<g>
	<path style="fill:#88C9B3;" d="M367.17,183.58c0,2.51-0.05,5.01-0.15,7.5c-1.83,45.47-20.19,86.68-49.25,117.79
		c-3.41,3.66-6.97,7.17-10.68,10.55c-19.44,17.68-42.69,31.25-68.38,39.33c-17.39,5.47-35.91,8.42-55.12,8.42
		s-37.72-2.95-55.12-8.42c-25.69-8.07-48.95-21.65-68.39-39.33c-3.7-3.38-7.26-6.89-10.68-10.55
		C20.34,277.76,1.98,236.55,0.15,191.08c-0.1-2.49-0.15-4.99-0.15-7.5s0.05-5.01,0.15-7.5c1.83-45.47,20.2-86.68,49.24-117.79
		c3.43-3.65,6.99-7.17,10.69-10.54c19.44-17.68,42.7-31.26,68.39-39.33C145.87,2.95,164.38,0,183.59,0s37.73,2.95,55.12,8.42
		c25.69,8.08,48.94,21.65,68.38,39.33c3.71,3.37,7.27,6.89,10.69,10.54c29.04,31.11,47.41,72.32,49.24,117.79
		C367.12,178.57,367.17,181.07,367.17,183.58z"/>
	<g>
		<path style="fill:#51B7A6;" d="M317.77,308.87c-3.41,3.66-6.97,7.17-10.68,10.55c-5.46-5.38-11.22-10.36-17.23-14.93
			c-4-3.04-8.12-5.9-12.34-8.57c-12.66-8.02-26.24-14.34-40.45-18.84c-4.78-1.53-9.62-2.84-14.53-3.94
			c-12.64-2.85-25.69-4.31-38.95-4.31s-26.31,1.46-38.95,4.31c-4.91,1.1-9.76,2.42-14.54,3.94c-14.21,4.51-27.79,10.83-40.45,18.84
			c-4.22,2.67-8.33,5.53-12.33,8.57c-6.02,4.57-11.77,9.55-17.24,14.93c-3.7-3.38-7.26-6.89-10.68-10.55
			c6.55-6.46,13.48-12.39,20.75-17.76c4.08-3.02,8.25-5.87,12.53-8.53c14.12-8.81,29.28-15.7,45.15-20.52
			c0.19-0.06,0.37-0.11,0.56-0.17c0.88-0.26,1.76-0.52,2.64-0.77c0.49-0.14,0.99-0.28,1.48-0.41c0.18-0.05,0.35-0.1,0.53-0.15
			c0.63-0.17,1.27-0.34,1.91-0.51c0.32-0.08,0.65-0.17,0.97-0.25c0.05-0.01,0.1-0.03,0.15-0.04c0.11-0.03,0.22-0.05,0.33-0.08
			c0.61-0.16,1.22-0.31,1.83-0.45c0.44-0.11,0.88-0.22,1.32-0.32c0.48-0.12,0.96-0.22,1.44-0.33c0.48-0.11,0.95-0.22,1.43-0.32
			c13.38-2.93,27.16-4.43,41.17-4.43s27.79,1.5,41.17,4.43c4.92,1.07,9.79,2.34,14.59,3.8c15.87,4.82,31.03,11.71,45.14,20.52
			c4.28,2.66,8.46,5.51,12.54,8.53C304.29,296.49,311.22,302.42,317.77,308.87z"/>
		<path style="fill:#51B7A6;" d="M317.78,58.29c-6.55,6.46-13.48,12.39-20.75,17.76c-4.08,3.03-8.26,5.88-12.54,8.54
			c-14.11,8.81-29.27,15.7-45.13,20.51v0.01c-1,0.3-2,0.6-3.01,0.88c-0.49,0.14-0.99,0.28-1.49,0.42c-0.91,0.25-1.83,0.5-2.75,0.74
			c-1.09,0.28-2.17,0.56-3.26,0.82c-0.4,0.1-0.81,0.2-1.22,0.29c-0.95,0.23-1.91,0.44-2.87,0.65c-13.38,2.93-27.16,4.43-41.17,4.43
			s-27.79-1.5-41.17-4.43c-4.93-1.07-9.8-2.34-14.6-3.8v-0.01c-15.86-4.81-31.02-11.7-45.14-20.51c-4.28-2.66-8.45-5.51-12.53-8.53
			c-7.27-5.38-14.21-11.31-20.76-17.77c3.43-3.65,6.99-7.17,10.69-10.54c5.47,5.39,11.22,10.37,17.24,14.93
			c4,3.04,8.11,5.9,12.33,8.56c12.66,8.02,26.24,14.34,40.45,18.85c4.78,1.52,9.62,2.84,14.53,3.94
			c12.65,2.85,25.69,4.31,38.96,4.31s26.31-1.46,38.96-4.31c4.91-1.1,9.75-2.42,14.53-3.94c14.21-4.51,27.78-10.83,40.44-18.84
			c4.22-2.67,8.34-5.53,12.34-8.57c6.01-4.56,11.77-9.54,17.23-14.93C310.8,51.12,314.36,54.64,317.78,58.29z"/>
	</g>
	<path style="fill:#51B7A6;" d="M244.33,176.08c-0.28-24.86-1.98-48.89-4.97-70.97c-1,0.3-2,0.6-3.01,0.88
		c-0.49,0.14-0.99,0.28-1.49,0.42c-0.91,0.25-1.83,0.5-2.75,0.74c-1.09,0.28-2.17,0.56-3.26,0.82c-0.4,0.1-0.81,0.2-1.22,0.29
		c-0.95,0.23-1.91,0.44-2.87,0.65c2.63,19.9,4.3,42.39,4.57,67.17c0.04,2.48,0.05,4.98,0.05,7.5s-0.01,5.02-0.05,7.5h15
		c0.04-2.49,0.05-4.99,0.05-7.5S244.37,178.57,244.33,176.08z M137.85,191.08h-15c0.28,24.87,1.98,48.9,4.98,70.98
		c0.19-0.06,0.37-0.11,0.56-0.17c0.88-0.26,1.76-0.52,2.64-0.77c0.49-0.14,0.99-0.28,1.48-0.41c0.18-0.05,0.35-0.1,0.53-0.15
		c0.63-0.17,1.27-0.34,1.91-0.51c0.32-0.08,0.65-0.17,0.97-0.25c0.05-0.01,0.1-0.03,0.15-0.04c0.11-0.03,0.22-0.05,0.33-0.08
		c0.61-0.15,1.22-0.31,1.83-0.45c0.44-0.11,0.88-0.22,1.32-0.32c0.48-0.12,0.96-0.22,1.44-0.33c0.48-0.11,0.95-0.22,1.43-0.32
		C139.79,238.35,138.12,215.86,137.85,191.08z M244.33,176.08c-0.28-24.86-1.98-48.89-4.97-70.97c-1,0.3-2,0.6-3.01,0.88
		c-0.49,0.14-0.99,0.28-1.49,0.42c-0.91,0.25-1.83,0.5-2.75,0.74c-1.09,0.28-2.17,0.56-3.26,0.82c-0.4,0.1-0.81,0.2-1.22,0.29
		c-0.95,0.23-1.91,0.44-2.87,0.65c2.63,19.9,4.3,42.39,4.57,67.17c0.04,2.48,0.05,4.98,0.05,7.5s-0.01,5.02-0.05,7.5h15
		c0.04-2.49,0.05-4.99,0.05-7.5S244.37,178.57,244.33,176.08z M137.85,191.08h-15c0.28,24.87,1.98,48.9,4.98,70.98
		c0.19-0.06,0.37-0.11,0.56-0.17c0.88-0.26,1.76-0.52,2.64-0.77c0.49-0.14,0.99-0.28,1.48-0.41c0.18-0.05,0.35-0.1,0.53-0.15
		c0.63-0.17,1.27-0.34,1.91-0.51c0.32-0.08,0.65-0.17,0.97-0.25c0.05-0.01,0.1-0.03,0.15-0.04c0.11-0.03,0.22-0.05,0.33-0.08
		c0.61-0.16,1.22-0.31,1.83-0.45c0.44-0.11,0.88-0.22,1.32-0.32c0.48-0.12,0.96-0.22,1.44-0.33c0.48-0.11,0.95-0.22,1.43-0.32
		C139.79,238.35,138.12,215.86,137.85,191.08z M244.33,176.08c-0.28-24.86-1.98-48.89-4.97-70.97c-1,0.3-2,0.6-3.01,0.88
		c-0.49,0.14-0.99,0.28-1.49,0.42c-0.91,0.25-1.83,0.5-2.75,0.74c-1.09,0.28-2.17,0.56-3.26,0.82c-0.4,0.1-0.81,0.2-1.22,0.29
		c-0.95,0.23-1.91,0.44-2.87,0.65c2.63,19.9,4.3,42.39,4.57,67.17c0.04,2.48,0.05,4.98,0.05,7.5s-0.01,5.02-0.05,7.5h15
		c0.04-2.49,0.05-4.99,0.05-7.5S244.37,178.57,244.33,176.08z M137.85,191.08h-15c0.28,24.87,1.98,48.9,4.98,70.98
		c0.19-0.06,0.37-0.11,0.56-0.17c0.88-0.26,1.76-0.52,2.64-0.77c0.49-0.14,0.99-0.28,1.48-0.41c0.18-0.05,0.35-0.1,0.53-0.15
		c0.63-0.17,1.27-0.34,1.91-0.51c0.32-0.08,0.65-0.17,0.97-0.25c0.05-0.01,0.1-0.03,0.15-0.04c0.11-0.03,0.22-0.05,0.33-0.08
		c0.61-0.15,1.22-0.31,1.83-0.45c0.44-0.11,0.88-0.22,1.32-0.32c0.48-0.12,0.96-0.22,1.44-0.33c0.48-0.11,0.95-0.22,1.43-0.32
		C139.79,238.35,138.12,215.86,137.85,191.08z M244.33,176.08c-0.28-24.86-1.98-48.89-4.97-70.97c-1,0.3-2,0.6-3.01,0.88
		c-0.49,0.14-0.99,0.28-1.49,0.42c-0.91,0.25-1.83,0.5-2.75,0.74c-1.09,0.28-2.17,0.56-3.26,0.82c-0.4,0.1-0.81,0.2-1.22,0.29
		c-0.95,0.23-1.91,0.44-2.87,0.65c2.63,19.9,4.3,42.39,4.57,67.17c0.04,2.48,0.05,4.98,0.05,7.5s-0.01,5.02-0.05,7.5h15
		c0.04-2.49,0.05-4.99,0.05-7.5S244.37,178.57,244.33,176.08z M137.85,191.08h-15c0.28,24.87,1.98,48.9,4.98,70.98
		c0.19-0.06,0.37-0.11,0.56-0.17c0.88-0.26,1.76-0.52,2.64-0.77c0.49-0.14,0.99-0.28,1.48-0.41c0.18-0.05,0.35-0.1,0.53-0.15
		c0.63-0.17,1.27-0.34,1.91-0.51c0.32-0.08,0.65-0.17,0.97-0.25c0.05-0.01,0.1-0.03,0.15-0.04c0.11-0.03,0.22-0.05,0.33-0.08
		c0.61-0.15,1.22-0.31,1.83-0.45c0.44-0.11,0.88-0.22,1.32-0.32c0.48-0.12,0.96-0.22,1.44-0.33c0.48-0.11,0.95-0.22,1.43-0.32
		C139.79,238.35,138.12,215.86,137.85,191.08z M320.57,176.08c-0.99-36.18-9.16-70.62-23.54-100.03c-2.23-4.58-4.62-9.04-7.17-13.37
		c-2.67-4.57-5.51-8.99-8.51-13.24c-12.43-17.6-26.87-31.41-42.64-41.02C221.32,2.95,202.8,0,183.59,0s-37.72,2.95-55.12,8.42
		c-15.77,9.61-30.21,23.42-42.64,41.02c-3,4.25-5.84,8.67-8.51,13.24c-2.55,4.33-4.94,8.79-7.17,13.38
		C55.76,105.47,47.6,139.9,46.6,176.08c-0.07,2.49-0.1,4.99-0.1,7.5s0.03,5.01,0.1,7.5c1,36.18,9.16,70.62,23.55,100.03
		c2.23,4.59,4.62,9.05,7.17,13.38c2.67,4.56,5.51,8.98,8.51,13.23c12.43,17.6,26.87,31.42,42.64,41.03
		c17.4,5.47,35.91,8.42,55.12,8.42s37.73-2.95,55.12-8.42c15.77-9.61,30.21-23.43,42.64-41.03c3-4.25,5.84-8.67,8.51-13.23
		c2.55-4.33,4.94-8.79,7.17-13.38c14.38-29.41,22.55-63.85,23.54-100.03c0.07-2.49,0.1-4.99,0.1-7.5S320.64,178.57,320.57,176.08z
		 M89.65,295.92c-2.47-4.27-4.8-8.72-6.97-13.34c-12.45-26.29-20.08-57.67-21.07-91.5c-0.07-2.49-0.11-4.99-0.11-7.5
		s0.04-5.01,0.11-7.5c0.99-33.82,8.62-65.2,21.07-91.49c2.17-4.62,4.5-9.07,6.97-13.35c16.63-28.88,39.52-49.98,65.64-58.96
		c-6.22,9.7-11.79,22.88-16.59,39.4c-3.38,11.66-6.26,24.56-8.6,38.41c-0.83,4.89-1.59,9.89-2.28,15.01v0.01
		c-2.99,22.08-4.69,46.11-4.97,70.97c-0.04,2.49-0.05,4.99-0.05,7.5s0.01,5.01,0.05,7.5c0.28,24.87,1.98,48.9,4.98,70.98
		c0.68,5.12,1.44,10.13,2.27,15.02c2.34,13.85,5.22,26.76,8.6,38.41c4.8,16.51,10.37,29.69,16.59,39.39
		C129.17,345.9,106.28,324.8,89.65,295.92z M183.59,359.67c-13.12,0-29.78-31.52-38.95-86.53c-0.8-4.78-1.55-9.75-2.22-14.88
		c-2.63-19.91-4.3-42.4-4.57-67.18c-0.04-2.48-0.05-4.98-0.05-7.5s0.01-5.02,0.05-7.5c0.27-24.78,1.94-47.27,4.57-67.17
		c0.67-5.13,1.41-10.1,2.21-14.88c9.18-55.01,25.84-86.53,38.96-86.53s29.78,31.52,38.96,86.53c0.8,4.78,1.54,9.75,2.21,14.88
		c2.63,19.9,4.3,42.39,4.57,67.17c0.04,2.48,0.05,4.98,0.05,7.5s-0.01,5.02-0.05,7.5c-0.27,24.78-1.94,47.27-4.57,67.18
		c-0.67,5.13-1.42,10.1-2.22,14.88C213.37,328.15,196.71,359.67,183.59,359.67z M284.49,282.58c-2.17,4.62-4.5,9.07-6.97,13.34
		c-16.63,28.88-39.52,49.98-65.64,58.96c6.22-9.7,11.8-22.88,16.59-39.39c3.38-11.65,6.27-24.56,8.6-38.41
		c0.84-4.89,1.6-9.9,2.28-15.02c3-22.08,4.7-46.11,4.98-70.98c0.04-2.49,0.05-4.99,0.05-7.5s-0.01-5.01-0.05-7.5
		c-0.28-24.86-1.98-48.89-4.97-70.97v-0.01c-0.69-5.12-1.45-10.12-2.28-15.01c-2.34-13.85-5.23-26.75-8.61-38.41
		c-4.79-16.52-10.37-29.7-16.59-39.4c26.12,8.98,49.02,30.09,65.64,58.97c2.47,4.28,4.8,8.73,6.97,13.34
		c12.45,26.29,20.08,57.67,21.07,91.49c0.07,2.49,0.11,4.99,0.11,7.5s-0.04,5.01-0.11,7.5
		C304.57,224.91,296.94,256.29,284.49,282.58z M137.85,191.08h-15c0.28,24.87,1.98,48.9,4.98,70.98c0.19-0.06,0.37-0.11,0.56-0.17
		c0.88-0.26,1.76-0.52,2.64-0.77c0.49-0.14,0.99-0.28,1.48-0.41c0.18-0.05,0.35-0.1,0.53-0.15c0.63-0.17,1.27-0.34,1.91-0.51
		c0.32-0.08,0.65-0.17,0.97-0.25c0.05-0.01,0.1-0.03,0.15-0.04c0.11-0.03,0.22-0.05,0.33-0.08c0.61-0.15,1.22-0.31,1.83-0.45
		c0.44-0.11,0.88-0.22,1.32-0.32c0.48-0.12,0.96-0.22,1.44-0.33c0.48-0.11,0.95-0.22,1.43-0.32
		C139.79,238.35,138.12,215.86,137.85,191.08z M244.33,176.08c-0.28-24.86-1.98-48.89-4.97-70.97c-1,0.3-2,0.6-3.01,0.88
		c-0.49,0.14-0.99,0.28-1.49,0.42c-0.91,0.25-1.83,0.5-2.75,0.74c-1.09,0.28-2.17,0.56-3.26,0.82c-0.4,0.1-0.81,0.2-1.22,0.29
		c-0.95,0.23-1.91,0.44-2.87,0.65c2.63,19.9,4.3,42.39,4.57,67.17c0.04,2.48,0.05,4.98,0.05,7.5s-0.01,5.02-0.05,7.5h15
		c0.04-2.49,0.05-4.99,0.05-7.5S244.37,178.57,244.33,176.08z M137.85,191.08h-15c0.28,24.87,1.98,48.9,4.98,70.98
		c0.19-0.06,0.37-0.11,0.56-0.17c0.88-0.26,1.76-0.52,2.64-0.77c0.49-0.14,0.99-0.28,1.48-0.41c0.18-0.05,0.35-0.1,0.53-0.15
		c0.63-0.17,1.27-0.34,1.91-0.51c0.32-0.08,0.65-0.17,0.97-0.25c0.05-0.01,0.1-0.03,0.15-0.04c0.11-0.03,0.22-0.05,0.33-0.08
		c0.61-0.15,1.22-0.31,1.83-0.45c0.44-0.11,0.88-0.22,1.32-0.32c0.48-0.12,0.96-0.22,1.44-0.33c0.48-0.11,0.95-0.22,1.43-0.32
		C139.79,238.35,138.12,215.86,137.85,191.08z M244.33,176.08c-0.28-24.86-1.98-48.89-4.97-70.97c-1,0.3-2,0.6-3.01,0.88
		c-0.49,0.14-0.99,0.28-1.49,0.42c-0.91,0.25-1.83,0.5-2.75,0.74c-1.09,0.28-2.17,0.56-3.26,0.82c-0.4,0.1-0.81,0.2-1.22,0.29
		c-0.95,0.23-1.91,0.44-2.87,0.65c2.63,19.9,4.3,42.39,4.57,67.17c0.04,2.48,0.05,4.98,0.05,7.5s-0.01,5.02-0.05,7.5h15
		c0.04-2.49,0.05-4.99,0.05-7.5S244.37,178.57,244.33,176.08z M137.85,191.08h-15c0.28,24.87,1.98,48.9,4.98,70.98
		c0.19-0.06,0.37-0.11,0.56-0.17c0.88-0.26,1.76-0.52,2.64-0.77c0.49-0.14,0.99-0.28,1.48-0.41c0.18-0.05,0.35-0.1,0.53-0.15
		c0.63-0.17,1.27-0.34,1.91-0.51c0.32-0.08,0.65-0.17,0.97-0.25c0.05-0.01,0.1-0.03,0.15-0.04c0.11-0.03,0.22-0.05,0.33-0.08
		c0.61-0.15,1.22-0.31,1.83-0.45c0.44-0.11,0.88-0.22,1.32-0.32c0.48-0.12,0.96-0.22,1.44-0.33c0.48-0.11,0.95-0.22,1.43-0.32
		C139.79,238.35,138.12,215.86,137.85,191.08z M244.33,176.08c-0.28-24.86-1.98-48.89-4.97-70.97c-1,0.3-2,0.6-3.01,0.88
		c-0.49,0.14-0.99,0.28-1.49,0.42c-0.91,0.25-1.83,0.5-2.75,0.74c-1.09,0.28-2.17,0.56-3.26,0.82c-0.4,0.1-0.81,0.2-1.22,0.29
		c-0.95,0.23-1.91,0.44-2.87,0.65c2.63,19.9,4.3,42.39,4.57,67.17c0.04,2.48,0.05,4.98,0.05,7.5s-0.01,5.02-0.05,7.5h15
		c0.04-2.49,0.05-4.99,0.05-7.5S244.37,178.57,244.33,176.08z M137.85,191.08h-15c0.28,24.87,1.98,48.9,4.98,70.98
		c0.19-0.06,0.37-0.11,0.56-0.17c0.88-0.26,1.76-0.52,2.64-0.77c0.49-0.14,0.99-0.28,1.48-0.41c0.18-0.05,0.35-0.1,0.53-0.15
		c0.63-0.17,1.27-0.34,1.91-0.51c0.32-0.08,0.65-0.17,0.97-0.25c0.05-0.01,0.1-0.03,0.15-0.04c0.11-0.03,0.22-0.05,0.33-0.08
		c0.61-0.15,1.22-0.31,1.83-0.45c0.44-0.11,0.88-0.22,1.32-0.32c0.48-0.12,0.96-0.22,1.44-0.33c0.48-0.11,0.95-0.22,1.43-0.32
		C139.79,238.35,138.12,215.86,137.85,191.08z M244.33,176.08c-0.28-24.86-1.98-48.89-4.97-70.97c-1,0.3-2,0.6-3.01,0.88
		c-0.49,0.14-0.99,0.28-1.49,0.42c-0.91,0.25-1.83,0.5-2.75,0.74c-1.09,0.28-2.17,0.56-3.26,0.82c-0.4,0.1-0.81,0.2-1.22,0.29
		c-0.95,0.23-1.91,0.44-2.87,0.65c2.63,19.9,4.3,42.39,4.57,67.17c0.04,2.48,0.05,4.98,0.05,7.5s-0.01,5.02-0.05,7.5h15
		c0.04-2.49,0.05-4.99,0.05-7.5S244.37,178.57,244.33,176.08z"/>
	<path style="fill:#51B7A6;" d="M367.17,183.58c0,2.51-0.05,5.01-0.15,7.5H0.15c-0.1-2.49-0.15-4.99-0.15-7.5s0.05-5.01,0.15-7.5
		h366.87C367.12,178.57,367.17,181.07,367.17,183.58z"/>
</g>
<g>
</g>
<g>
</g>
<g>
</g>
<g>
</g>
<g>
</g>
<g>
</g>
<g>
</g>
<g>
</g>
<g>
</g>
<g>
</g>
<g>
</g>
<g>
</g>
<g>
</g>
<g>
</g>
<g>
</g>
</svg>
