<?xml version="1.0" encoding="iso-8859-1"?>
<!-- Generator: Adobe Illustrator 18.0.0, SVG Export Plug-In . SVG Version: 6.00 Build 0)  -->
<!DOCTYPE svg PUBLIC "-//W3C//DTD SVG 1.1//EN" "http://www.w3.org/Graphics/SVG/1.1/DTD/svg11.dtd">
<svg version="1.1" id="Capa_1" xmlns="http://www.w3.org/2000/svg" xmlns:xlink="http://www.w3.org/1999/xlink" x="0px" y="0px"
	 viewBox="0 0 382.432 382.432" style="enable-background:new 0 0 382.432 382.432;" xml:space="preserve">
<g>
	<g id="XMLID_173_">
		<g>
			<path style="fill:#E5DCC6;" d="M299.139,239.125l-89.24-0.53h-0.01l-0.27-45.57c15.65,0,30.55,0,43.42,0L299.139,239.125z"/>
			<polygon style="fill:#E5DCC6;" points="155.559,292.925 156.099,382.185 66.309,292.395 			"/>
			<polygon style="fill:#E5DCC6;" points="299.149,239.135 156.099,382.185 155.559,292.925 210.219,293.255 209.889,238.595 
				209.899,238.595 299.139,239.125 			"/>
			<path style="fill:#FCF4DE;" d="M209.889,238.595l0.33,54.66l-54.66-0.33l-89.25-0.53l99.37-99.37c14.64,0,29.61,0,43.94,0
				L209.889,238.595z"/>
			<path style="fill:#88C9B3;" d="M80.069,79.435c8.12-45.02,47.47-79.19,94.82-79.19c34.06,0,63.96,17.68,81.11,44.34
				c11.25-6.15,24.15-9.66,37.88-9.66c43.66,0,79.05,35.39,79.05,79.05s-35.39,79.05-79.05,79.05c-5.38,0-20.62,0-40.84,0
				c-12.87,0-27.77,0-43.42,0c-14.33,0-29.3,0-43.94,0c-46.74,0-90.12,0-98.63,0c-31.78,0-57.54-25.76-57.54-57.55
				c0-31.78,25.76-57.54,57.54-57.54C71.529,77.935,75.879,78.465,80.069,79.435z"/>
		</g>
		<g>
		</g>
	</g>
</g>
<g>
</g>
<g>
</g>
<g>
</g>
<g>
</g>
<g>
</g>
<g>
</g>
<g>
</g>
<g>
</g>
<g>
</g>
<g>
</g>
<g>
</g>
<g>
</g>
<g>
</g>
<g>
</g>
<g>
</g>
</svg>
