<?xml version="1.0" encoding="iso-8859-1"?>
<!-- Generator: Adobe Illustrator 18.0.0, SVG Export Plug-In . SVG Version: 6.00 Build 0)  -->
<!DOCTYPE svg PUBLIC "-//W3C//DTD SVG 1.1//EN" "http://www.w3.org/Graphics/SVG/1.1/DTD/svg11.dtd">
<svg version="1.1" id="Capa_1" xmlns="http://www.w3.org/2000/svg" xmlns:xlink="http://www.w3.org/1999/xlink" x="0px" y="0px"
	 viewBox="0 0 404.533 404.533" style="enable-background:new 0 0 404.533 404.533;" xml:space="preserve">
<g>
	<path style="fill:#88C9B3;" d="M263.72,181.577l118.1,90.13c23.57,17.99,29.68,50.9,14.15,76.15
		c-15.54,25.25-47.68,34.63-74.36,21.69l-195.26-94.67c-42.36-20.54-57.71-73.17-33.04-113.27c15.14-24.59,41.26-37.86,67.84-37.86
		c16.76,0,33.7,5.28,48.17,16.32l16.4,12.52L263.72,181.577z M365.39,329.047c5.9-9.59,3.6-21.97-5.35-28.8l-172.5-131.64
		c-9.93-7.58-22.17-10.5-34.45-8.22c-12.29,2.28-22.66,9.4-29.21,20.04c-6.54,10.64-8.22,23.1-4.72,35.1
		c3.5,11.99,11.61,21.6,22.86,27.05l195.25,94.67C347.41,342.157,359.49,338.627,365.39,329.047z"/>
	<path style="fill:#51B7A6;" d="M360.04,300.247c8.95,6.83,11.25,19.21,5.35,28.8c-5.9,9.58-17.98,13.11-28.12,8.2l-195.25-94.67
		c-11.25-5.45-19.36-15.06-22.86-27.05c-3.5-12-1.82-24.46,4.72-35.1c6.55-10.64,16.92-17.76,29.21-20.04
		c12.28-2.28,24.52,0.64,34.45,8.22L360.04,300.247z"/>
	<path style="fill:#7C6655;" d="M263.72,146.627v34.95l-38-28.99v-6.05c0-7.16-0.77-14.26-2.3-21.16
		c-3.83-17.45-12.4-33.65-25.2-46.44c-17.74-17.74-41.3-27.48-66.36-27.48h-0.72C79.78,51.847,38,94.587,38,146.737
		c0,80.21,32.58,156.34,89.96,211.57c7.27,7,7.92,18.41,1.38,26.09c-7.1,8.33-19.76,8.96-27.65,1.37
		C36.83,323.377,0,237.357,0,146.737c0-72.95,58.7-132.74,130.86-133.28h1.01c34.86,0,67.64,13.42,92.48,37.88
		C249.81,76.397,263.72,110.907,263.72,146.627z"/>
	<path style="fill:#7C6655;" d="M161.198,218.613c-2.266,0-4.58-0.515-6.794-1.588c-4.041-1.959-6.728-5.138-7.984-9.448
		c-1.208-4.133-0.604-8.61,1.657-12.278c2.352-3.818,5.782-6.171,10.197-6.991c4.357-0.811,8.49,0.162,12.036,2.87
		c6.354,4.849,7.926,13.31,3.736,20.118C171.147,216.008,166.295,218.613,161.198,218.613z M160.851,203.478
		c0.026,0.014,0.059,0.031,0.097,0.049c0,0,0,0,0.001,0c0.08,0.039,0.143,0.063,0.188,0.079c0.094-0.089,0.19-0.248,0.229-0.372
		c-0.034-0.034-0.084-0.079-0.155-0.133c-0.034-0.026-0.064-0.048-0.089-0.064c-0.029,0.004-0.064,0.009-0.105,0.017
		c-0.044,0.008-0.081,0.016-0.111,0.023c-0.016,0.024-0.035,0.053-0.057,0.089c-0.036,0.058-0.048,0.146-0.029,0.208
		C160.831,203.416,160.841,203.45,160.851,203.478z"/>
	<path style="fill:#665040;" d="M233.71,133.227l-10.29-7.85c1.53,6.9,2.3,14,2.3,21.16v6.05l38,28.99v-25.46L233.71,133.227z"/>
</g>
<g>
</g>
<g>
</g>
<g>
</g>
<g>
</g>
<g>
</g>
<g>
</g>
<g>
</g>
<g>
</g>
<g>
</g>
<g>
</g>
<g>
</g>
<g>
</g>
<g>
</g>
<g>
</g>
<g>
</g>
</svg>
