<?xml version="1.0" encoding="iso-8859-1"?>
<!-- Generator: Adobe Illustrator 18.0.0, SVG Export Plug-In . SVG Version: 6.00 Build 0)  -->
<!DOCTYPE svg PUBLIC "-//W3C//DTD SVG 1.1//EN" "http://www.w3.org/Graphics/SVG/1.1/DTD/svg11.dtd">
<svg version="1.1" id="Capa_1" xmlns="http://www.w3.org/2000/svg" xmlns:xlink="http://www.w3.org/1999/xlink" x="0px" y="0px"
	 viewBox="0 0 453.53 453.53" style="enable-background:new 0 0 453.53 453.53;" xml:space="preserve">
<g>
	<path style="fill:#88C9B3;" d="M396.29,127.425v205.81h-88.54h-80.98h-80.99H57.25v-205.81h94.18
		c6.51,35.69,37.76,62.75,75.33,62.75c37.58,0,68.83-27.06,75.33-62.75H396.29z"/>
	<path style="fill:#7C6655;" d="M425.77,119.055v243.65H27.78v-243.65c0-11.66,9.45-21.11,21.11-21.11h101.74l1.11,0.22
		c-1.02,4.98-1.56,10.14-1.56,15.43c0,4.72,0.43,9.34,1.25,13.83H57.25v205.81h339.04v-205.81h-94.2c0.82-4.49,1.25-9.11,1.25-13.83
		c0-5.29-0.54-10.45-1.56-15.43l1.13-0.22h101.74C416.31,97.945,425.77,107.395,425.77,119.055z"/>
	<path style="fill:#51B7A6;" d="M159.64,362.705H293.9c0,13.39-10.86,24.25-24.26,24.25h-85.75
		C170.5,386.955,159.64,376.095,159.64,362.705z"/>
	<path style="fill:#88C9B3;" d="M453.53,362.705v27.49c0,14.54-11.79,26.32-26.33,26.32H26.33c-14.54,0-26.33-11.78-26.33-26.32
		v-27.49h27.78h131.86c0,13.39,10.86,24.25,24.25,24.25h85.75c13.4,0,24.26-10.86,24.26-24.25h131.87H453.53z"/>
	<rect x="219.264" y="215.236" width="15" height="117.998"/>
	<path style="fill:#E2D9C3;" d="M251.87,186.645l-25.1,28.59l-25.11-28.59c7.9-2.58,16.34-3.97,25.1-3.97
		C235.53,182.675,243.96,184.065,251.87,186.645z"/>
	<path style="fill:#C65C05;" d="M201.66,186.645l25.11,28.59l-36.2,27l-11.86-43.75l-0.01-0.01
		C185.59,193.375,193.33,189.355,201.66,186.645z"/>
	<path style="fill:#C65C05;" d="M274.82,198.475l-11.86,43.76l-36.19-27l25.1-28.59C260.19,189.355,267.93,193.375,274.82,198.475z"
		/>
	<path style="fill:#E77200;" d="M307.75,263.655v69.58H145.78v-69.58c0-26.73,12.95-50.44,32.92-65.18l0.01,0.01l11.86,43.75
		l36.2-27l36.19,27l11.86-43.76c3.27,2.4,6.35,5.06,9.21,7.92C298.69,221.045,307.75,241.285,307.75,263.655z"/>
	<path style="fill:#7C6655;" d="M246.07,266.235c-1.98,0-3.91-0.8-5.31-2.2c-1.39-1.39-2.19-3.33-2.19-5.3
		c0-0.49,0.05-0.98,0.14-1.47c0.1-0.48,0.24-0.95,0.43-1.4c0.19-0.45,0.42-0.89,0.69-1.29c0.27-0.41,0.59-0.8,0.93-1.14
		c1.74-1.75,4.33-2.55,6.77-2.05c0.48,0.09,0.95,0.24,1.41,0.42c0.45,0.19,0.88,0.42,1.29,0.69c0.41,0.28,0.79,0.59,1.14,0.94
		c0.35,0.34,0.66,0.73,0.93,1.14c0.27,0.4,0.5,0.84,0.69,1.29c0.19,0.45,0.33,0.92,0.43,1.4c0.1,0.49,0.15,0.98,0.15,1.47
		c0,1.97-0.8,3.91-2.2,5.3c-0.35,0.35-0.73,0.66-1.14,0.93c-0.41,0.27-0.84,0.51-1.29,0.69c-0.46,0.19-0.93,0.34-1.41,0.43
		C247.05,266.185,246.55,266.235,246.07,266.235z"/>
	<path style="fill:#FCF4DE;" d="M302.09,127.425c-6.5,35.69-37.75,62.75-75.33,62.75c-37.57,0-68.82-27.06-75.33-62.75
		c-0.82-4.49-1.25-9.11-1.25-13.83c0-5.29,0.54-10.45,1.56-15.43c7.14-34.9,38.02-61.15,75.02-61.15
		c37.01,0,67.88,26.25,75.02,61.15c1.02,4.98,1.56,10.14,1.56,15.43C303.34,118.315,302.91,122.935,302.09,127.425z"/>
	<path style="fill:#665040;" d="M151.74,98.165c-1.02,4.98-1.56,10.14-1.56,15.43c0,4.72,0.43,9.34,1.25,13.83h-12.57
		c-0.7-4.51-1.07-9.13-1.07-13.83c0-5.35,0.48-10.57,1.37-15.65h11.47L151.74,98.165z"/>
	<path style="fill:#665040;" d="M315.73,113.595c0,4.7-0.37,9.32-1.07,13.83h-12.57c0.82-4.49,1.25-9.11,1.25-13.83
		c0-5.29-0.54-10.45-1.56-15.43l1.13-0.22h11.45C315.25,103.025,315.73,108.245,315.73,113.595z"/>
	<path style="fill:#7C6655;" d="M198.76,108.745c-0.48,0-0.98-0.05-1.46-0.15c-0.48-0.1-0.95-0.24-1.4-0.43
		c-0.46-0.18-0.89-0.42-1.3-0.69c-0.41-0.27-0.79-0.58-1.14-0.93c-0.34-0.35-0.66-0.73-0.93-1.14c-0.27-0.41-0.5-0.84-0.69-1.29
		c-0.19-0.46-0.33-0.93-0.43-1.41c-0.1-0.48-0.15-0.97-0.15-1.46c0-0.49,0.05-0.98,0.15-1.47c0.1-0.48,0.24-0.95,0.43-1.4
		s0.42-0.89,0.69-1.3c0.27-0.41,0.59-0.79,0.93-1.14c0.35-0.34,0.73-0.66,1.14-0.93c0.41-0.27,0.84-0.5,1.3-0.69
		c0.45-0.19,0.92-0.33,1.4-0.43c0.97-0.19,1.96-0.19,2.93,0c0.48,0.1,0.95,0.24,1.4,0.43c0.46,0.19,0.89,0.42,1.3,0.69
		c0.41,0.27,0.79,0.59,1.14,0.93c0.34,0.35,0.66,0.73,0.93,1.14c0.27,0.41,0.5,0.85,0.69,1.3s0.33,0.92,0.43,1.4
		c0.09,0.49,0.14,0.98,0.14,1.47c0,0.49-0.05,0.98-0.14,1.46c-0.1,0.48-0.24,0.95-0.43,1.41c-0.19,0.45-0.42,0.88-0.69,1.29
		c-0.27,0.41-0.59,0.79-0.93,1.14c-0.35,0.35-0.73,0.66-1.14,0.93c-0.41,0.27-0.84,0.51-1.3,0.69c-0.45,0.19-0.92,0.33-1.4,0.43
		C199.75,108.694,199.25,108.745,198.76,108.745z"/>
	<path style="fill:#7C6655;" d="M254.76,108.745c-1.97,0-3.9-0.8-5.3-2.2c-0.34-0.35-0.66-0.73-0.93-1.14
		c-0.27-0.41-0.5-0.84-0.69-1.29c-0.19-0.46-0.33-0.93-0.43-1.41c-0.1-0.48-0.15-0.97-0.15-1.46c0-1.98,0.8-3.91,2.2-5.31
		c1.74-1.74,4.33-2.54,6.77-2.05c0.48,0.1,0.95,0.24,1.4,0.43c0.46,0.19,0.89,0.42,1.3,0.69c0.41,0.27,0.79,0.59,1.14,0.93
		c0.34,0.35,0.66,0.73,0.93,1.14c0.27,0.41,0.5,0.85,0.69,1.3s0.33,0.92,0.43,1.4c0.09,0.49,0.14,0.98,0.14,1.47
		c0,0.49-0.05,0.98-0.14,1.46c-0.1,0.48-0.24,0.95-0.43,1.41c-0.19,0.45-0.42,0.88-0.69,1.29c-0.27,0.41-0.59,0.79-0.93,1.14
		c-0.35,0.35-0.73,0.66-1.14,0.93c-0.41,0.27-0.84,0.51-1.3,0.69c-0.45,0.19-0.92,0.33-1.4,0.43
		C255.75,108.694,255.25,108.745,254.76,108.745z"/>
</g>
<g>
</g>
<g>
</g>
<g>
</g>
<g>
</g>
<g>
</g>
<g>
</g>
<g>
</g>
<g>
</g>
<g>
</g>
<g>
</g>
<g>
</g>
<g>
</g>
<g>
</g>
<g>
</g>
<g>
</g>
</svg>
