<?xml version="1.0" encoding="iso-8859-1"?>
<!-- Generator: Adobe Illustrator 18.0.0, SVG Export Plug-In . SVG Version: 6.00 Build 0)  -->
<!DOCTYPE svg PUBLIC "-//W3C//DTD SVG 1.1//EN" "http://www.w3.org/Graphics/SVG/1.1/DTD/svg11.dtd">
<svg version="1.1" id="Capa_1" xmlns="http://www.w3.org/2000/svg" xmlns:xlink="http://www.w3.org/1999/xlink" x="0px" y="0px"
	 viewBox="0 0 399.5 399.5" style="enable-background:new 0 0 399.5 399.5;" xml:space="preserve">
<polygon style="fill:#88C9B3;" points="399.5,123.51 399.5,199.61 387.14,203.06 370.64,207.66 370.64,115.45 387.14,120.06 "/>
<polygon style="fill:#7C6655;" points="370.64,264.31 370.64,306.69 312.93,306.69 312.93,279.57 312.93,231 "/>
<polygon style="fill:#665040;" points="370.64,207.66 370.64,264.31 312.93,231 312.93,106.5 370.64,139.81 "/>
<polygon style="fill:#7C6655;" points="370.64,115.45 370.64,139.81 312.93,106.5 312.93,52.16 370.64,85.47 "/>
<polygon style="fill:#665040;" points="370.64,16.42 370.64,85.47 312.93,52.16 312.93,43.54 312.93,16.42 "/>
<polygon style="fill:#E77200;" points="312.93,43.54 312.93,279.57 296.43,274.5 167.63,234.94 143.18,227.43 143.18,95.68 
	167.63,88.17 296.43,48.61 "/>
<polygon style="fill:#7C6655;" points="164.18,358.74 164.18,383.08 88.28,383.08 80.36,359.19 81.73,358.74 144.13,358.74 "/>
<polygon style="fill:#E77200;" points="144.13,358.74 81.73,358.74 80.36,359.19 77.48,350.5 47.54,260.25 48.51,259.93 
	111.2,259.93 141.38,350.5 "/>
<path style="fill:#88C9B3;" d="M143.18,95.68v131.75h-10.5H39.92c-1.09,0-2.14-0.17-3.14-0.47c-4.3-1.34-7.42-5.34-7.42-10.09v-4.31
	v-102v-4.32c0-5.83,4.73-10.56,10.56-10.56H143.18z"/>
<path style="fill:#7C6655;" d="M132.68,227.43l-7.37,11.15l-14.11,21.35H48.51l-0.97,0.32l-7.18-21.67l-3.7-11.15l0.12-0.47
	c1,0.3,2.05,0.47,3.14,0.47H132.68z"/>
<path style="fill:#7C6655;" d="M29.36,110.56v102c-3.14,0-6.17-0.49-9-1.41C8.54,207.35,0,196.27,0,183.19v-43.27
	c0-8.11,3.29-15.45,8.6-20.76c3.25-3.26,7.27-5.75,11.76-7.19C23.19,111.05,26.22,110.56,29.36,110.56z"/>
<path style="fill:#665040;" d="M132.68,227.43l-7.37,11.15H40.36l-3.7-11.15l0.12-0.47c1,0.3,2.05,0.47,3.14,0.47H132.68z"/>
<path style="fill:#665040;" d="M29.36,110.56v102c-3.14,0-6.17-0.49-9-1.41v-99.18C23.19,111.05,26.22,110.56,29.36,110.56z"/>
<polygon style="fill:#C65C05;" points="144.13,358.74 81.73,358.74 80.36,359.19 77.48,350.5 141.38,350.5 "/>
<polygon style="fill:#C65C05;" points="312.93,43.54 312.93,279.57 296.43,274.5 296.43,48.61 "/>
<polygon style="fill:#51B7A6;" points="387.14,120.06 387.14,203.06 370.64,207.66 370.64,115.45 "/>
<g>
</g>
<g>
</g>
<g>
</g>
<g>
</g>
<g>
</g>
<g>
</g>
<g>
</g>
<g>
</g>
<g>
</g>
<g>
</g>
<g>
</g>
<g>
</g>
<g>
</g>
<g>
</g>
<g>
</g>
</svg>
