<?xml version="1.0" encoding="iso-8859-1"?>
<!-- Generator: Adobe Illustrator 18.0.0, SVG Export Plug-In . SVG Version: 6.00 Build 0)  -->
<!DOCTYPE svg PUBLIC "-//W3C//DTD SVG 1.1//EN" "http://www.w3.org/Graphics/SVG/1.1/DTD/svg11.dtd">
<svg version="1.1" id="Capa_1" xmlns="http://www.w3.org/2000/svg" xmlns:xlink="http://www.w3.org/1999/xlink" x="0px" y="0px"
	 viewBox="0 0 446.57 446.57" style="enable-background:new 0 0 446.57 446.57;" xml:space="preserve">
<g>
	<path style="fill:#7C6655;" d="M230.78,380.96v58.11c0,4.14-3.35,7.5-7.5,7.5c-4.14,0-7.5-3.36-7.5-7.5v-58.11
		c0-4.14,3.36-7.5,7.5-7.5C227.43,373.46,230.78,376.82,230.78,380.96z"/>
	<path style="fill:#7C6655;" d="M297.5,73.53c0,2.86-0.17,5.69-0.49,8.47h-73.72h-73.73c-0.32-2.78-0.49-5.61-0.49-8.47
		C149.07,32.92,182.3,0,223.29,0C264.27,0,297.5,32.92,297.5,73.53z"/>
	<path style="fill:#665040;" d="M230.78,380.96v13.19c-2.5,0.21-5,0.31-7.5,0.31s-5-0.1-7.5-0.31v-13.19c0-4.14,3.36-7.5,7.5-7.5
		C227.43,373.46,230.78,376.82,230.78,380.96z"/>
	<path style="fill:#E5DCC6;" d="M264.09,336.82v34.77c-12.88,6.25-26.85,9.37-40.81,9.37c-13.96,0-27.93-3.12-40.81-9.37v-34.77
		C208.24,349.33,238.32,349.33,264.09,336.82z"/>
	<path style="fill:#E77200;" d="M264.09,191.47v145.35c-25.77,12.51-55.85,12.51-81.62,0V191.47l0.45-1.87l40.37,9.81l40.35-9.81
		L264.09,191.47z"/>
	<polygon style="fill:#51B7A6;" points="223.29,82 223.29,199.41 182.92,189.6 138.4,178.78 138.4,82 149.56,82 	"/>
	<polygon style="fill:#88C9B3;" points="308.17,82 308.17,178.78 263.64,189.6 223.29,199.41 223.29,82 297.01,82 	"/>
	<polygon style="fill:#C65C05;" points="264.09,191.47 264.09,213.49 263.64,213.6 223.29,223.41 182.92,213.6 182.47,213.49 
		182.47,191.47 182.92,189.6 223.29,199.41 263.64,189.6 	"/>
</g>
<g>
</g>
<g>
</g>
<g>
</g>
<g>
</g>
<g>
</g>
<g>
</g>
<g>
</g>
<g>
</g>
<g>
</g>
<g>
</g>
<g>
</g>
<g>
</g>
<g>
</g>
<g>
</g>
<g>
</g>
</svg>
