<?xml version="1.0" encoding="iso-8859-1"?>
<!-- Generator: Adobe Illustrator 18.0.0, SVG Export Plug-In . SVG Version: 6.00 Build 0)  -->
<!DOCTYPE svg PUBLIC "-//W3C//DTD SVG 1.1//EN" "http://www.w3.org/Graphics/SVG/1.1/DTD/svg11.dtd">
<svg version="1.1" id="Capa_1" xmlns="http://www.w3.org/2000/svg" xmlns:xlink="http://www.w3.org/1999/xlink" x="0px" y="0px"
	 viewBox="0 0 421.48 421.48" style="enable-background:new 0 0 421.48 421.48;" xml:space="preserve">
<g>
	<rect x="105.745" y="51" style="fill:#FCF4DE;" width="209.99" height="259.69"/>
	<polygon style="fill:#FCF4DE;" points="315.735,204.44 315.735,310.69 254.355,310.69 	"/>
	<polygon style="fill:#FCF4DE;" points="204.445,51 105.745,221.83 105.745,156.57 166.745,51 	"/>
	<path style="fill:#E77200;" d="M342.735,16.94v387.6c0,9.36-7.58,16.94-16.94,16.94H95.685c-9.35,0-16.94-7.58-16.94-16.94V16.94
		c0-9.35,7.59-16.94,16.94-16.94h230.11C335.155,0,342.735,7.59,342.735,16.94z M315.735,310.69V204.44V51h-111.29h-37.7h-61v105.57
		v65.26v88.86h148.61H315.735z M315.735,338.98c0-4.14-3.36-7.5-7.5-7.5h-30c-2.07,0-3.95,0.84-5.3,2.2c-1.36,1.35-2.2,3.23-2.2,5.3
		c0,4.15,3.36,7.5,7.5,7.5h30c2.07,0,3.95-0.84,5.3-2.19C314.895,342.93,315.735,341.05,315.735,338.98z M315.735,364.48
		c0-4.14-3.36-7.5-7.5-7.5h-30c-2.07,0-3.95,0.84-5.3,2.2c-1.36,1.35-2.2,3.23-2.2,5.3c0,4.15,3.36,7.5,7.5,7.5h30
		c2.07,0,3.95-0.84,5.3-2.19C314.895,368.43,315.735,366.55,315.735,364.48z M315.735,389.98c0-4.14-3.36-7.5-7.5-7.5h-30
		c-2.07,0-3.95,0.84-5.3,2.2c-1.36,1.35-2.2,3.23-2.2,5.3c0,4.14,3.36,7.5,7.5,7.5h30c2.07,0,3.95-0.84,5.3-2.2
		C314.895,393.93,315.735,392.05,315.735,389.98z M251.245,25.5c0-4.14-3.36-7.5-7.5-7.5h-55.5c-2.07,0-3.94,0.84-5.3,2.2
		c-1.36,1.35-2.2,3.23-2.2,5.3c0,4.14,3.36,7.5,7.5,7.5h55.5c2.07,0,3.94-0.84,5.3-2.2C250.405,29.45,251.245,27.57,251.245,25.5z
		 M233.245,338.98c0-4.14-3.36-7.5-7.5-7.5h-30c-2.07,0-3.94,0.84-5.3,2.2c-1.36,1.35-2.2,3.23-2.2,5.3c0,4.15,3.36,7.5,7.5,7.5h30
		c2.07,0,3.94-0.84,5.3-2.19C232.405,342.93,233.245,341.05,233.245,338.98z M233.245,364.48c0-4.14-3.36-7.5-7.5-7.5h-30
		c-2.07,0-3.94,0.84-5.3,2.2c-1.36,1.35-2.2,3.23-2.2,5.3c0,4.15,3.36,7.5,7.5,7.5h30c2.07,0,3.94-0.84,5.3-2.19
		C232.405,368.43,233.245,366.55,233.245,364.48z M233.245,389.98c0-4.14-3.36-7.5-7.5-7.5h-30c-2.07,0-3.94,0.84-5.3,2.2
		c-1.36,1.35-2.2,3.23-2.2,5.3c0,4.14,3.36,7.5,7.5,7.5h30c2.07,0,3.94-0.84,5.3-2.2C232.405,393.93,233.245,392.05,233.245,389.98z
		 M150.745,338.98c0-4.14-3.36-7.5-7.5-7.5h-30c-2.07,0-3.94,0.84-5.3,2.2c-1.36,1.35-2.2,3.23-2.2,5.3c0,4.15,3.36,7.5,7.5,7.5h30
		c2.07,0,3.94-0.84,5.3-2.19C149.905,342.93,150.745,341.05,150.745,338.98z M150.745,364.48c0-4.14-3.36-7.5-7.5-7.5h-30
		c-2.07,0-3.94,0.84-5.3,2.2c-1.36,1.35-2.2,3.23-2.2,5.3c0,4.15,3.36,7.5,7.5,7.5h30c2.07,0,3.94-0.84,5.3-2.19
		C149.905,368.43,150.745,366.55,150.745,364.48z M150.745,389.98c0-4.14-3.36-7.5-7.5-7.5h-30c-2.07,0-3.94,0.84-5.3,2.2
		c-1.36,1.35-2.2,3.23-2.2,5.3c0,4.14,3.36,7.5,7.5,7.5h30c2.07,0,3.94-0.84,5.3-2.2C149.905,393.93,150.745,392.05,150.745,389.98z
		"/>
	<polygon style="fill:#88C9B3;" points="303.735,63 303.735,225.21 261.285,298.69 117.745,298.69 117.745,201.06 197.515,63 	"/>
	<path style="fill:#7C6655;" d="M308.235,331.48c4.14,0,7.5,3.36,7.5,7.5c0,2.07-0.84,3.95-2.2,5.31c-1.35,1.35-3.23,2.19-5.3,2.19
		h-30c-4.14,0-7.5-3.35-7.5-7.5c0-2.07,0.84-3.95,2.2-5.3c1.35-1.36,3.23-2.2,5.3-2.2H308.235z"/>
	<path style="fill:#7C6655;" d="M308.235,356.98c4.14,0,7.5,3.36,7.5,7.5c0,2.07-0.84,3.95-2.2,5.31c-1.35,1.35-3.23,2.19-5.3,2.19
		h-30c-4.14,0-7.5-3.35-7.5-7.5c0-2.07,0.84-3.95,2.2-5.3c1.35-1.36,3.23-2.2,5.3-2.2H308.235z"/>
	<path style="fill:#7C6655;" d="M308.235,382.48c4.14,0,7.5,3.36,7.5,7.5c0,2.07-0.84,3.95-2.2,5.3c-1.35,1.36-3.23,2.2-5.3,2.2h-30
		c-4.14,0-7.5-3.36-7.5-7.5c0-2.07,0.84-3.95,2.2-5.3c1.35-1.36,3.23-2.2,5.3-2.2H308.235z"/>
	<path style="fill:#7C6655;" d="M243.745,18c4.14,0,7.5,3.36,7.5,7.5c0,2.07-0.84,3.95-2.2,5.3c-1.36,1.36-3.23,2.2-5.3,2.2h-55.5
		c-4.14,0-7.5-3.36-7.5-7.5c0-2.07,0.84-3.95,2.2-5.3c1.36-1.36,3.23-2.2,5.3-2.2H243.745z"/>
	<path style="fill:#7C6655;" d="M225.745,331.48c4.14,0,7.5,3.36,7.5,7.5c0,2.07-0.84,3.95-2.2,5.31c-1.36,1.35-3.23,2.19-5.3,2.19
		h-30c-4.14,0-7.5-3.35-7.5-7.5c0-2.07,0.84-3.95,2.2-5.3c1.36-1.36,3.23-2.2,5.3-2.2H225.745z"/>
	<path style="fill:#7C6655;" d="M225.745,356.98c4.14,0,7.5,3.36,7.5,7.5c0,2.07-0.84,3.95-2.2,5.31c-1.36,1.35-3.23,2.19-5.3,2.19
		h-30c-4.14,0-7.5-3.35-7.5-7.5c0-2.07,0.84-3.95,2.2-5.3c1.36-1.36,3.23-2.2,5.3-2.2H225.745z"/>
	<path style="fill:#7C6655;" d="M225.745,382.48c4.14,0,7.5,3.36,7.5,7.5c0,2.07-0.84,3.95-2.2,5.3c-1.36,1.36-3.23,2.2-5.3,2.2h-30
		c-4.14,0-7.5-3.36-7.5-7.5c0-2.07,0.84-3.95,2.2-5.3c1.36-1.36,3.23-2.2,5.3-2.2H225.745z"/>
	<polygon style="fill:#88C9B3;" points="159.815,63 117.745,135.8 117.745,63 	"/>
	<path style="fill:#7C6655;" d="M143.245,331.48c4.14,0,7.5,3.36,7.5,7.5c0,2.07-0.84,3.95-2.2,5.31c-1.36,1.35-3.23,2.19-5.3,2.19
		h-30c-4.14,0-7.5-3.35-7.5-7.5c0-2.07,0.84-3.95,2.2-5.3c1.36-1.36,3.23-2.2,5.3-2.2H143.245z"/>
	<path style="fill:#7C6655;" d="M143.245,356.98c4.14,0,7.5,3.36,7.5,7.5c0,2.07-0.84,3.95-2.2,5.31c-1.36,1.35-3.23,2.19-5.3,2.19
		h-30c-4.14,0-7.5-3.35-7.5-7.5c0-2.07,0.84-3.95,2.2-5.3c1.36-1.36,3.23-2.2,5.3-2.2H143.245z"/>
	<path style="fill:#7C6655;" d="M143.245,382.48c4.14,0,7.5,3.36,7.5,7.5c0,2.07-0.84,3.95-2.2,5.3c-1.36,1.36-3.23,2.2-5.3,2.2h-30
		c-4.14,0-7.5-3.36-7.5-7.5c0-2.07,0.84-3.95,2.2-5.3c1.36-1.36,3.23-2.2,5.3-2.2H143.245z"/>
	<polygon style="fill:#88C9B3;" points="159.815,63 117.745,135.8 117.745,63 	"/>
	<polygon style="fill:#88C9B3;" points="303.735,63 303.735,225.21 261.285,298.69 117.745,298.69 117.745,201.06 197.515,63 	"/>
</g>
<g>
</g>
<g>
</g>
<g>
</g>
<g>
</g>
<g>
</g>
<g>
</g>
<g>
</g>
<g>
</g>
<g>
</g>
<g>
</g>
<g>
</g>
<g>
</g>
<g>
</g>
<g>
</g>
<g>
</g>
</svg>
