<?xml version="1.0" encoding="iso-8859-1"?>
<!-- Generator: Adobe Illustrator 18.0.0, SVG Export Plug-In . SVG Version: 6.00 Build 0)  -->
<!DOCTYPE svg PUBLIC "-//W3C//DTD SVG 1.1//EN" "http://www.w3.org/Graphics/SVG/1.1/DTD/svg11.dtd">
<svg version="1.1" id="Capa_1" xmlns="http://www.w3.org/2000/svg" xmlns:xlink="http://www.w3.org/1999/xlink" x="0px" y="0px"
	 viewBox="0 0 405.33 405.33" style="enable-background:new 0 0 405.33 405.33;" xml:space="preserve">
<g>
	<path style="fill:#88C9B3;" d="M375.428,323.06v59.88c0,12.36-10.02,22.39-22.38,22.39h-47.45v-82.27H375.428z"/>
	<rect x="305.598" y="242.3" style="fill:#FCF4DE;" width="69.83" height="80.76"/>
	<rect x="305.598" y="161.53" style="fill:#E77200;" width="69.83" height="80.77"/>
	<rect x="305.598" y="80.76" style="fill:#88C9B3;" width="69.83" height="80.77"/>
	<path style="fill:#FCF4DE;" d="M375.428,22.38v58.38h-69.83v80.77v80.77v80.76v82.27H78.928c-12.36,0-22.38-10.03-22.38-22.39
		V22.38C56.548,10.02,66.568,0,78.928,0h274.12C365.408,0,375.428,10.02,375.428,22.38z"/>
	<g>
		<rect x="124.271" y="65.385" style="fill:#7C6655;" width="131.554" height="15"/>
		<rect x="124.271" y="103.988" style="fill:#7C6655;" width="131.554" height="15"/>
		<rect x="124.271" y="142.59" style="fill:#7C6655;" width="131.554" height="15"/>
		<rect x="124.271" y="181.193" style="fill:#7C6655;" width="131.554" height="15"/>
		<rect x="124.271" y="219.796" style="fill:#7C6655;" width="131.554" height="15"/>
		<rect x="124.271" y="258.398" style="fill:#7C6655;" width="131.554" height="15"/>
		<rect x="124.271" y="335.604" style="fill:#7C6655;" width="131.554" height="15"/>
		<rect x="124.271" y="297.001" style="fill:#7C6655;" width="131.554" height="15"/>
	</g>
	<path d="M340.518,47.88c-3.138,0-6.002-2.025-7.063-4.972c-1.079-2.999-0.075-6.44,2.416-8.416
		c5.409-4.291,13.503,0.809,11.956,7.536C347.051,45.4,343.998,47.88,340.518,47.88z"/>
	<path d="M340.518,129.02c-3.274,0-6.222-2.197-7.178-5.323c-0.861-2.813,0.073-5.969,2.303-7.879
		c5.152-4.411,13.315,0.117,12.291,6.804C347.378,126.247,344.198,129.02,340.518,129.02z"/>
	<path d="M340.518,291.3c-3.342,0-6.327-2.284-7.228-5.495c-0.847-3.021,0.359-6.366,2.937-8.151
		c5.712-3.955,13.507,1.648,11.46,8.328C346.731,289.102,343.789,291.3,340.518,291.3z"/>
	<path d="M340.518,210.16c-3.143,0-5.998-2.023-7.063-4.971c-1.077-2.982-0.083-6.461,2.416-8.416
		c5.282-4.132,13.22,0.516,12.03,7.173C347.267,207.489,344.134,210.16,340.518,210.16z"/>
	<path d="M340.518,372.44c-6.859,0-10.113-8.928-4.761-13.294c5.32-4.341,13.494,0.489,12.111,7.264
		C347.162,369.87,344.061,372.44,340.518,372.44z"/>
	<rect x="29.902" y="40.488" style="fill:#E77200;" width="49.78" height="15"/>
	<rect x="29.902" y="117.825" style="fill:#E77200;" width="49.78" height="15"/>
	<rect x="29.902" y="195.161" style="fill:#E77200;" width="49.78" height="15"/>
	<rect x="29.902" y="272.497" style="fill:#E77200;" width="49.78" height="15"/>
	<rect x="29.902" y="349.834" style="fill:#E77200;" width="49.78" height="15"/>
	<rect x="305.598" y="161.53" style="fill:#C65C05;" width="15.07" height="80.77"/>
	<polygon style="fill:#51B7A6;" points="375.428,80.76 305.598,80.76 305.598,80.76 305.598,93.93 305.598,161.53 320.668,161.53 
		320.668,93.93 375.428,93.93 	"/>
	<rect x="305.598" y="242.3" style="fill:#E5DCC6;" width="15.07" height="80.76"/>
	<rect x="305.598" y="323.06" style="fill:#51B7A6;" width="15.07" height="82.27"/>
</g>
<g>
</g>
<g>
</g>
<g>
</g>
<g>
</g>
<g>
</g>
<g>
</g>
<g>
</g>
<g>
</g>
<g>
</g>
<g>
</g>
<g>
</g>
<g>
</g>
<g>
</g>
<g>
</g>
<g>
</g>
</svg>
