<?xml version="1.0" encoding="iso-8859-1"?>
<!-- Generator: Adobe Illustrator 18.0.0, SVG Export Plug-In . SVG Version: 6.00 Build 0)  -->
<!DOCTYPE svg PUBLIC "-//W3C//DTD SVG 1.1//EN" "http://www.w3.org/Graphics/SVG/1.1/DTD/svg11.dtd">
<svg version="1.1" id="Capa_1" xmlns="http://www.w3.org/2000/svg" xmlns:xlink="http://www.w3.org/1999/xlink" x="0px" y="0px"
	 viewBox="0 0 461.574 461.574" style="enable-background:new 0 0 461.574 461.574;" xml:space="preserve">
<g>
	<path style="fill:#7C6655;" d="M202.206,448.982c-1.618,0-3.255-0.175-4.9-0.59c-6.668-1.688-11.342-6.687-15.466-11.097
		c-2.634-2.817-5.357-5.729-7.605-6.569c-2.322-0.872-6.328-0.464-10.202-0.069c-5.974,0.61-12.742,1.301-18.809-1.779
		c-6.111-3.094-9.568-8.993-12.619-14.198c-1.954-3.334-3.974-6.781-5.996-8.105c-2.053-1.346-6.042-1.821-9.901-2.281
		c-5.968-0.712-12.732-1.518-17.992-5.857c-5.273-4.346-7.358-10.844-9.198-16.577c-1.184-3.69-2.408-7.505-4.104-9.248
		c-1.703-1.753-5.489-3.084-9.149-4.372c-5.672-1.995-12.102-4.256-16.299-9.636c-4.194-5.378-4.816-12.164-5.365-18.15
		c-0.354-3.87-0.721-7.872-2.007-9.958c-1.269-2.062-4.662-4.18-7.943-6.228c-5.113-3.191-10.908-6.809-13.839-12.996
		c-2.906-6.16-2.026-12.906-1.249-18.857c0.504-3.864,1.025-7.861,0.223-10.198c-0.778-2.263-3.612-5.063-6.352-7.772
		c-4.299-4.249-9.171-9.064-10.673-15.775c-1.472-6.614,0.864-12.985,2.925-18.605c1.347-3.674,2.74-7.474,2.468-9.955
		c-0.258-2.355-2.402-5.694-4.475-8.923C10.408,216.09,6.7,210.316,6.7,203.41c0-6.587,3.835-11.803,7.219-16.404
		c1.776-2.416,3.987-5.422,4.186-7.067c0.21-1.753-1.191-5.128-2.428-8.105c-2.166-5.216-4.621-11.128-3.08-17.403
		c1.565-6.374,6.532-10.511,10.914-14.162c2.313-1.927,5.193-4.326,5.789-5.894c0.619-1.633,0.075-5.229-0.404-8.402
		c-0.846-5.598-1.805-11.944,1.218-17.686c3.035-5.776,8.832-8.593,13.946-11.079c2.723-1.323,6.112-2.971,7.082-4.373
		c0.984-1.421,1.329-5.187,1.607-8.212c0.518-5.646,1.105-12.046,5.422-16.911c4.311-4.875,10.604-6.226,16.157-7.418
		c2.965-0.637,6.654-1.429,7.938-2.567c1.283-1.136,2.511-4.704,3.499-7.571c1.849-5.37,3.945-11.456,9.311-15.165
		c5.344-3.694,11.762-3.509,17.425-3.341c3.202,0.093,6.831,0.199,8.375-0.61c1.492-0.785,3.531-3.944,5.169-6.483
		c3.087-4.783,6.586-10.205,12.704-12.527c6.058-2.301,12.234-0.577,17.681,0.944c3.095,0.864,6.604,1.843,8.311,1.424
		c1.62-0.398,4.346-2.96,6.536-5.019c4.159-3.91,8.873-8.342,15.402-9.125c6.383-0.765,11.942,2.369,16.845,5.135
		c2.819,1.59,6.014,3.392,7.808,3.392c0.992-0.11,3.783-1.989,5.451-3.112c4.189-2.821,9.403-6.332,15.545-5.559
		c6.131,0.781,10.311,5.456,13.669,9.213c1.318,1.475,3.51,3.926,4.517,4.355c1.088,0.087,4.153-1.047,5.998-1.73
		c4.721-1.748,10.596-3.922,16.376-1.762c5.746,2.136,8.761,7.609,11.183,12.007c0.953,1.73,2.537,4.605,3.422,5.252
		c1.045,0.321,4.292-0.127,6.244-0.397c4.965-0.686,11.144-1.541,16.3,1.775c5.17,3.321,6.962,9.305,8.401,14.113
		c0.565,1.886,1.503,5.019,2.229,5.838c0.958,0.538,4.232,0.782,6.204,0.93c4.998,0.373,11.218,0.838,15.558,5.168
		c4.368,4.369,4.832,10.617,5.205,15.637c0.146,1.956,0.387,5.205,0.915,6.161c0.816,0.742,3.965,1.716,5.86,2.302
		c4.812,1.488,10.8,3.34,14.047,8.577c3.278,5.27,2.253,11.49,1.429,16.487c-0.325,1.971-0.869,5.271-0.544,6.26
		c0.495,0.822,3.356,2.588,5.065,3.643c4.323,2.668,9.703,5.989,11.498,11.962c1.809,5.963-0.856,11.709-2.998,16.327
		c-0.835,1.802-2.225,4.798-2.214,5.894c0.322,1.03,2.488,3.441,3.791,4.892c3.43,3.818,7.698,8.57,7.698,14.897
		c0,6.077-4.403,10.151-7.94,13.425c-0.667,0.617-1.552,1.437-2.198,2.108c0.592,0.952,1.543,2.21,2.189,3.064
		c2.761,3.652,6.197,8.197,5.124,13.778c-1.208,6.218-6.78,9.425-10.849,11.767c-0.816,0.47-1.917,1.104-2.692,1.621
		c0.268,1.106,0.845,2.717,1.231,3.791c1.598,4.452,3.586,9.994,0.542,15.084c-3.05,5.103-9.814,6.711-21.507,9.115
		c-3.103,0.638-6.034,1.241-8.18,1.85l-4.098-14.43c2.68-0.761,5.875-1.418,9.257-2.113c3.075-0.632,7.695-1.582,10.555-2.477
		c-0.224-0.675-0.479-1.384-0.687-1.963c-1.468-4.092-3.296-9.185-1.533-14.206c1.652-4.681,5.891-7.121,9.63-9.273
		c0.754-0.434,1.801-1.037,2.654-1.591c-0.458-0.647-0.988-1.349-1.412-1.908c-2.711-3.587-6.086-8.05-5.641-13.584
		c0.426-5.164,4.146-8.606,7.427-11.643c0.855-0.792,2.158-1.997,2.874-2.84c-0.695-1.213-2.468-3.187-3.603-4.449
		c-3.131-3.485-6.68-7.436-7.469-12.681c-0.79-5.309,1.459-10.16,3.443-14.439c0.79-1.702,2.078-4.48,2.194-5.679
		c-0.757-0.938-3.367-2.549-4.966-3.536c-4.037-2.492-8.612-5.316-10.849-10.221c-2.242-4.89-1.366-10.201-0.593-14.887
		c0.309-1.872,0.813-4.931,0.591-6.11c-0.958-0.717-3.898-1.627-5.699-2.184c-4.572-1.414-9.753-3.017-13.152-7.268
		c-3.393-4.25-3.794-9.649-4.148-14.414c-0.142-1.9-0.373-5.01-0.871-6.099c-1.087-0.489-4.168-0.719-6.052-0.86
		c-4.794-0.358-10.228-0.764-14.494-4.198c-4.255-3.422-5.814-8.63-7.19-13.226c-0.546-1.825-1.441-4.813-2.16-5.762
		c-1.157-0.257-4.237,0.17-6.117,0.43c-4.76,0.658-10.155,1.405-15.042-1.057c-4.877-2.451-7.502-7.216-9.817-11.42
		c-0.915-1.66-2.411-4.377-3.309-5.156c-0.002,0-0.004,0-0.006,0c-1.195,0-4.114,1.081-5.899,1.741
		c-4.481,1.659-9.559,3.54-14.833,2.223c-5.272-1.312-8.884-5.353-12.071-8.918c-1.258-1.407-3.312-3.704-4.369-4.28
		c-1.166,0.298-3.721,2.018-5.285,3.072c-3.947,2.658-8.42,5.67-13.829,5.67c-5.732,0-10.75-2.83-15.177-5.327
		c-2.609-1.472-6.182-3.491-7.691-3.306c-1.632,0.196-4.684,3.065-6.913,5.16c-3.649,3.431-7.786,7.319-13.231,8.657
		c-5.528,1.358-11.05-0.183-15.923-1.543c-2.901-0.809-6.877-1.917-8.324-1.369c-1.512,0.574-3.773,4.079-5.425,6.638
		c-2.724,4.221-5.811,9.004-10.793,11.627c-5.031,2.64-10.748,2.473-15.791,2.326c-3.024-0.09-7.163-0.21-8.458,0.687
		c-1.315,0.91-2.669,4.84-3.657,7.71c-1.641,4.764-3.5,10.163-7.734,13.915c-4.231,3.749-9.812,4.947-14.736,6.005
		c-2.965,0.637-7.026,1.509-8.08,2.7c-1.058,1.191-1.437,5.319-1.713,8.333c-0.461,5.024-0.983,10.717-4.208,15.376
		c-3.206,4.638-8.335,7.13-12.86,9.33c-2.735,1.329-6.48,3.149-7.227,4.57c-0.731,1.389-0.113,5.477,0.338,8.462
		c0.755,4.994,1.61,10.655-0.404,15.968c-1.997,5.251-6.361,8.887-10.211,12.094c-2.346,1.955-5.56,4.632-5.949,6.216
		c-0.366,1.492,1.213,5.294,2.366,8.071c1.943,4.68,4.146,9.984,3.467,15.652c-0.673,5.563-4.031,10.13-6.994,14.159
		c-1.917,2.607-4.303,5.853-4.303,7.519c0,2.504,2.339,6.147,4.601,9.67c2.87,4.469,6.123,9.535,6.765,15.395
		c0.655,5.976-1.444,11.701-3.296,16.751c-1.417,3.866-2.883,7.863-2.369,10.175c0.538,2.405,3.608,5.439,6.577,8.373
		c3.784,3.74,8.073,7.979,9.995,13.567c1.945,5.666,1.158,11.694,0.464,17.013c-0.535,4.098-1.088,8.335-0.064,10.506
		c1.043,2.202,4.692,4.479,8.221,6.682c4.528,2.827,9.661,6.03,12.773,11.087c3.13,5.08,3.684,11.124,4.172,16.456
		c0.378,4.124,0.769,8.388,2.254,10.293c1.493,1.913,5.537,3.335,9.448,4.711c5.049,1.775,10.771,3.788,14.927,8.065
		c4.148,4.263,5.999,10.032,7.632,15.122c1.268,3.952,2.58,8.039,4.458,9.586c1.866,1.54,6.116,2.046,10.226,2.537
		c5.319,0.634,11.348,1.353,16.346,4.628c4.963,3.25,8.02,8.466,10.717,13.068c2.103,3.588,4.277,7.298,6.46,8.403
		c2.146,1.089,6.394,0.655,10.502,0.236c5.337-0.544,11.384-1.161,16.989,0.945c5.535,2.067,9.659,6.479,13.298,10.371
		c2.847,3.044,5.791,6.193,8.183,6.799c2.292,0.577,6.327-0.775,10.229-2.084c5.1-1.71,10.879-3.647,16.838-2.825
		c3.907,0.54,6.729,4.015,6.455,7.95l-0.152,2.184c-0.002,0.046-0.005,0.091-0.008,0.135l-0.15,2.16l-7.789-0.541l-0.411,2.971
		c-2.473-0.344-6.306,0.944-10.014,2.188C211.726,447.413,207.048,448.982,202.206,448.982z M374.995,214.302L374.995,214.302
		L374.995,214.302z M374.666,199.07L374.666,199.07L374.666,199.07z M377.196,168.1L377.196,168.1L377.196,168.1z M377.372,166.866
		L377.372,166.866L377.372,166.866z M371.616,130.415L371.616,130.415L371.616,130.415z M355.828,95.616L355.828,95.616
		L355.828,95.616z M302.087,41.526L302.087,41.526L302.087,41.526z M301.787,41.334C301.787,41.334,301.787,41.334,301.787,41.334
		S301.787,41.334,301.787,41.334z M230.253,14.949L230.253,14.949L230.253,14.949z"/>
	<g>
		<path style="fill:#E77200;" d="M357.193,196.55c0,2.038-0.041,4.069-0.122,6.091c-1.486,36.925-16.396,70.391-39.995,95.654
			c-2.769,2.972-5.66,5.823-8.673,8.567c-15.787,14.357-34.667,25.377-55.53,31.939c-14.122,4.442-29.162,6.838-44.762,6.838
			s-30.632-2.396-44.762-6.838c-20.862-6.553-39.751-17.581-55.538-31.939c-3.005-2.745-5.896-5.595-8.673-8.567
			c-23.599-25.264-38.509-58.729-39.995-95.654c-0.081-2.022-0.122-4.052-0.122-6.091c0-2.038,0.041-4.068,0.122-6.091
			c1.486-36.925,16.404-70.391,39.987-95.654c2.785-2.964,5.676-5.823,8.681-8.559c15.787-14.357,34.676-25.385,55.538-31.939
			c14.13-4.442,29.162-6.838,44.762-6.838s30.64,2.396,44.762,6.838c20.862,6.561,39.743,17.581,55.53,31.939
			c3.013,2.737,5.904,5.595,8.681,8.559c23.583,25.264,38.501,58.729,39.987,95.654C357.152,192.481,357.193,194.511,357.193,196.55
			z"/>
		<path style="fill:#C65C05;" d="M357.071,190.459H319.35c-0.804-29.381-7.439-57.349-19.116-81.232
			c5.904-4.361,11.532-9.177,16.851-14.422c-2.777-2.964-5.668-5.823-8.681-8.56c-4.434,4.377-9.111,8.421-13.992,12.125
			c-2.168-3.711-4.475-7.301-6.911-10.752c-10.094-14.292-21.82-25.507-34.627-33.311c-14.122-4.442-29.162-6.838-44.762-6.838
			c-15.6,0-30.631,2.396-44.762,6.838c-12.806,7.804-24.533,19.019-34.627,33.311c-2.436,3.451-4.742,7.041-6.911,10.752
			c-4.889-3.703-9.558-7.747-14-12.125c-3.005,2.737-5.896,5.595-8.681,8.56c5.319,5.246,10.955,10.062,16.859,14.43
			c-11.686,23.883-18.312,51.843-19.124,81.224H59.145c-0.081,2.022-0.122,4.052-0.122,6.091s0.041,4.069,0.122,6.091h37.721
			c0.812,29.381,7.439,57.349,19.124,81.232c-5.904,4.361-11.531,9.177-16.851,14.423c2.777,2.972,5.668,5.823,8.673,8.567
			c4.442-4.369,9.111-8.413,14-12.124c2.168,3.703,4.475,7.292,6.911,10.744c10.094,14.292,21.82,25.516,34.627,33.32
			c14.13,4.442,29.162,6.838,44.762,6.838c15.6,0,30.64-2.396,44.762-6.838c12.806-7.804,24.533-19.027,34.627-33.32
			c2.436-3.451,4.742-7.041,6.911-10.744c4.881,3.711,9.558,7.755,13.992,12.124c3.013-2.745,5.904-5.595,8.673-8.567
			c-5.319-5.238-10.947-10.053-16.842-14.423c11.678-23.883,18.312-51.851,19.116-81.232h37.721
			c0.081-2.022,0.122-4.052,0.122-6.091S357.152,192.481,357.071,190.459z M307.161,190.459h-49.723
			c-0.227-20.188-1.608-39.702-4.036-57.633v-0.008c12.88-3.906,25.191-9.501,36.649-16.656
			C300.161,137.512,306.357,162.995,307.161,190.459z M241.545,257.195c-10.866-2.379-22.056-3.597-33.433-3.597
			s-22.568,1.218-33.433,3.597c-2.136-16.168-3.492-34.432-3.711-54.555h74.289C245.037,222.764,243.681,241.027,241.545,257.195z
			 M170.967,190.459c0.219-20.123,1.575-38.387,3.711-54.547c10.865,2.379,22.056,3.597,33.433,3.597s22.568-1.218,33.433-3.597
			c2.136,16.16,3.492,34.424,3.711,54.547H170.967z M284.39,105.329c-10.281,6.505-21.301,11.637-32.84,15.3
			c-1.9-11.247-4.247-21.723-6.992-31.192c-3.89-13.416-8.421-24.119-13.472-31.996C252.297,64.734,270.893,81.877,284.39,105.329z
			 M208.112,53.559c10.654,0,24.184,25.597,31.638,70.269c-10.273,2.314-20.862,3.5-31.638,3.5c-10.776,0-21.366-1.186-31.638-3.5
			C183.928,79.156,197.457,53.559,208.112,53.559z M185.13,57.441c-5.051,7.877-9.574,18.58-13.472,31.996
			c-2.745,9.469-5.084,19.945-6.984,31.192c-11.54-3.663-22.568-8.795-32.848-15.308C145.33,81.868,163.919,64.734,185.13,57.441z
			 M126.165,116.162c11.466,7.155,23.778,12.75,36.657,16.656v0.008c-2.428,17.931-3.809,37.445-4.036,57.633h-49.732
			C109.859,162.995,116.055,137.512,126.165,116.162z M109.055,202.64h49.732c0.227,20.196,1.608,39.71,4.044,57.641
			c-12.888,3.914-25.199,9.51-36.665,16.664C116.055,255.596,109.859,230.113,109.055,202.64z M131.825,287.778
			c10.281-6.505,21.309-11.637,32.848-15.3c1.9,11.247,4.239,21.731,6.984,31.192c3.898,13.407,8.421,24.111,13.472,31.988
			C163.919,328.366,145.33,311.231,131.825,287.778z M208.112,339.548c-10.654,0-24.184-25.597-31.63-70.269
			c10.265-2.314,20.862-3.5,31.63-3.5c10.768,0,21.366,1.186,31.63,3.5C232.295,313.952,218.766,339.548,208.112,339.548z
			 M231.085,335.658c5.051-7.877,9.583-18.58,13.472-31.988c2.745-9.461,5.092-19.945,6.984-31.192
			c11.54,3.654,22.568,8.787,32.848,15.3C270.885,311.231,252.297,328.366,231.085,335.658z M290.05,276.945
			c-11.458-7.155-23.769-12.75-36.657-16.664c2.436-17.931,3.817-37.445,4.044-57.641h49.723
			C306.357,230.113,300.161,255.596,290.05,276.945z"/>
	</g>
	<g id="XMLID_170_">
		<g>
			<path style="fill:#88C9B3;" d="M436.155,233.772l18.47,44.86l-11.75,19.98c-33.83,57.51-93.45,117.13-150.97,150.96l-19.97,11.75
				l-44.86-18.47l70.01-45.8l0.29-0.41l13.24,9.42c16.09-9.13,33.71-23.27,49.6-39.15c15.88-15.89,30.02-33.51,39.15-49.59
				l-9.42-13.25l0.4-0.29L436.155,233.772z"/>
			<polygon style="fill:#51B7A6;" points="436.155,233.772 390.345,303.782 389.945,304.072 375.985,284.442 416.095,224.272 			"/>
			<polygon style="fill:#51B7A6;" points="297.375,396.642 297.085,397.052 227.075,442.852 217.575,422.792 277.745,382.682 			"/>
		</g>
		<g>
		</g>
	</g>
</g>
<g>
</g>
<g>
</g>
<g>
</g>
<g>
</g>
<g>
</g>
<g>
</g>
<g>
</g>
<g>
</g>
<g>
</g>
<g>
</g>
<g>
</g>
<g>
</g>
<g>
</g>
<g>
</g>
<g>
</g>
</svg>
