<?xml version="1.0" encoding="iso-8859-1"?>
<!-- Generator: Adobe Illustrator 18.0.0, SVG Export Plug-In . SVG Version: 6.00 Build 0)  -->
<!DOCTYPE svg PUBLIC "-//W3C//DTD SVG 1.1//EN" "http://www.w3.org/Graphics/SVG/1.1/DTD/svg11.dtd">
<svg version="1.1" id="Capa_1" xmlns="http://www.w3.org/2000/svg" xmlns:xlink="http://www.w3.org/1999/xlink" x="0px" y="0px"
	 viewBox="0 0 452.7 452.7" style="enable-background:new 0 0 452.7 452.7;" xml:space="preserve">
<rect x="133.685" y="111" style="fill:#FCF4DE;" width="185.33" height="32.62"/>
<rect x="133.685" y="340.81" style="fill:#6BAF96;" width="44.56" height="54.89"/>
<rect x="140.685" y="347.81" style="fill:#88C9B3;" width="30.56" height="40.89"/>
<rect x="204.075" y="340.81" style="fill:#6BAF96;" width="44.56" height="54.89"/>
<rect x="211.075" y="347.81" style="fill:#88C9B3;" width="30.56" height="40.89"/>
<rect x="274.455" y="340.81" style="fill:#6BAF96;" width="44.56" height="54.89"/>
<polygon style="fill:#6BAF96;" points="133.685,111 183.475,111 164.625,143.62 133.685,143.62 "/>
<polygon style="fill:#6BAF96;" points="291.625,111 272.775,143.62 188.725,143.62 207.575,111 "/>
<rect x="281.455" y="347.81" style="fill:#88C9B3;" width="30.56" height="40.89"/>
<rect x="274.455" y="258.25" style="fill:#6BAF96;" width="44.56" height="54.89"/>
<rect x="281.455" y="265.25" style="fill:#88C9B3;" width="30.56" height="40.89"/>
<rect x="204.075" y="258.25" style="fill:#6BAF96;" width="44.56" height="54.89"/>
<rect x="211.075" y="265.25" style="fill:#88C9B3;" width="30.56" height="40.89"/>
<rect x="133.685" y="258.25" style="fill:#6BAF96;" width="44.56" height="54.89"/>
<rect x="140.685" y="265.25" style="fill:#88C9B3;" width="30.56" height="40.89"/>
<rect x="274.455" y="175.68" style="fill:#6BAF96;" width="44.56" height="54.89"/>
<rect x="281.455" y="182.68" style="fill:#88C9B3;" width="30.56" height="40.89"/>
<rect x="204.075" y="175.68" style="fill:#6BAF96;" width="44.56" height="54.89"/>
<g>
	<polygon style="fill:#6BAF96;" points="291.625,111 272.775,143.62 188.725,143.62 207.575,111 	"/>
	<polygon style="fill:#6BAF96;" points="183.475,111 164.625,143.62 133.685,143.62 133.685,111 	"/>
</g>
<rect x="211.075" y="182.68" style="fill:#88C9B3;" width="30.56" height="40.89"/>
<rect x="133.685" y="175.68" style="fill:#6BAF96;" width="44.56" height="54.89"/>
<rect x="140.685" y="182.68" style="fill:#88C9B3;" width="30.56" height="40.89"/>
<rect x="140.685" y="118" style="fill:#88C9B3;" width="171.33" height="18.62"/>
<polygon style="fill:#E77200;" points="355.765,422.7 355.765,452.7 96.935,452.7 96.935,422.7 106.685,422.7 346.015,422.7 "/>
<path style="fill:#E77200;" d="M346.015,84v338.7h-239.33V84H346.015z M319.015,395.7v-54.89h-44.56v54.89H319.015z M319.015,313.14
	v-54.89h-44.56v54.89H319.015z M319.015,230.57v-54.89h-44.56v54.89H319.015z M319.015,143.62V111h-27.39h-84.05h-24.1h-49.79v32.62
	h30.94h24.1h84.05H319.015z M248.635,395.7v-54.89h-44.56v54.89H248.635z M248.635,313.14v-54.89h-44.56v54.89H248.635z
	 M248.635,230.57v-54.89h-44.56v54.89H248.635z M178.245,395.7v-54.89h-44.56v54.89H178.245z M178.245,313.14v-54.89h-44.56v54.89
	H178.245z M178.245,230.57v-54.89h-44.56v54.89H178.245z"/>
<path style="fill:#E77200;" d="M363.375,64.49V84h-17.36h-239.33h-17.36V64.49l2.98-3.43c16.87-19.4,37.53-34.66,60.39-45.08
	C175.565,5.57,200.645,0,226.355,0c51.41,0,100.3,22.27,134.04,61.06L363.375,64.49z"/>
<path style="fill:#7C6655;" d="M139.143,56c7.84-5.617,16.243-10.475,25.165-14.542C183.922,32.53,204.803,28,226.355,28
	c31.568,0,61.984,9.953,87.167,28H139.143z"/>
<rect x="106.686" y="83.999" style="fill:#C65C05;" width="239.331" height="15.955"/>
<rect x="106.686" y="413.079" style="fill:#C65C05;" width="239.331" height="9.621"/>
<g>
</g>
<g>
</g>
<g>
</g>
<g>
</g>
<g>
</g>
<g>
</g>
<g>
</g>
<g>
</g>
<g>
</g>
<g>
</g>
<g>
</g>
<g>
</g>
<g>
</g>
<g>
</g>
<g>
</g>
</svg>
