<?xml version="1.0" encoding="iso-8859-1"?>
<!-- Generator: Adobe Illustrator 18.0.0, SVG Export Plug-In . SVG Version: 6.00 Build 0)  -->
<!DOCTYPE svg PUBLIC "-//W3C//DTD SVG 1.1//EN" "http://www.w3.org/Graphics/SVG/1.1/DTD/svg11.dtd">
<svg version="1.1" id="Capa_1" xmlns="http://www.w3.org/2000/svg" xmlns:xlink="http://www.w3.org/1999/xlink" x="0px" y="0px"
	 viewBox="0 0 445.289 445.289" style="enable-background:new 0 0 445.289 445.289;" xml:space="preserve">
<g>
	<path style="fill:#E77200;" d="M303.139,79.991H55.251c-10.024,0-18.15,8.126-18.15,18.15v34.156l-37.1,40h37.1v16.115
		c0,10.024,8.126,18.15,18.15,18.15h247.888c10.024,0,18.15-8.126,18.15-18.15V98.142C321.289,88.117,313.163,79.991,303.139,79.991
		z"/>
	<path style="fill:#88C9B3;" d="M142.15,238.726h247.888c10.024,0,18.15,8.126,18.15,18.15v34.156l37.1,40h-37.1v16.115
		c0,10.024-8.126,18.15-18.15,18.15H142.15c-10.024,0-18.15-8.126-18.15-18.15v-90.271C124,246.852,132.126,238.726,142.15,238.726z
		"/>
	<g>
		<rect x="81.195" y="117.277" style="fill:#7C6655;" width="196" height="15"/>
		<rect x="81.195" y="154.277" style="fill:#7C6655;" width="196" height="15"/>
	</g>
	<g>
		<rect x="168.094" y="276.012" style="fill:#7C6655;" width="196" height="15"/>
		<rect x="168.094" y="313.012" style="fill:#7C6655;" width="196" height="15"/>
	</g>
</g>
<g>
</g>
<g>
</g>
<g>
</g>
<g>
</g>
<g>
</g>
<g>
</g>
<g>
</g>
<g>
</g>
<g>
</g>
<g>
</g>
<g>
</g>
<g>
</g>
<g>
</g>
<g>
</g>
<g>
</g>
</svg>
