<?xml version="1.0" encoding="iso-8859-1"?>
<!-- Generator: Adobe Illustrator 18.0.0, SVG Export Plug-In . SVG Version: 6.00 Build 0)  -->
<!DOCTYPE svg PUBLIC "-//W3C//DTD SVG 1.1//EN" "http://www.w3.org/Graphics/SVG/1.1/DTD/svg11.dtd">
<svg version="1.1" id="Capa_1" xmlns="http://www.w3.org/2000/svg" xmlns:xlink="http://www.w3.org/1999/xlink" x="0px" y="0px"
	 viewBox="0 0 403.552 403.552" style="enable-background:new 0 0 403.552 403.552;" xml:space="preserve">
<g>
	<g id="XMLID_170_">
		<g>
			<polygon style="fill:#51B7A6;" points="387.149,31.655 403.299,65.755 300.999,133.965 267.619,110.225 268.109,109.535 			"/>
			<path style="fill:#88C9B3;" d="M387.149,31.655l-119.04,77.88l-0.49,0.69l-22.52-16.01c-27.35,15.52-57.31,39.57-84.32,66.57
				c-27,27-51.05,56.96-66.57,84.31l16.02,22.53l-0.69,0.49l-77.88,119.03l-31.41-76.27l19.98-33.96
				c57.52-97.79,158.89-199.17,256.68-256.69l33.96-19.97L387.149,31.655z"/>
			<polygon style="fill:#51B7A6;" points="110.229,267.625 133.959,300.995 65.759,403.305 31.659,387.145 109.539,268.115 			"/>
		</g>
		<g>
		</g>
	</g>
</g>
<g>
</g>
<g>
</g>
<g>
</g>
<g>
</g>
<g>
</g>
<g>
</g>
<g>
</g>
<g>
</g>
<g>
</g>
<g>
</g>
<g>
</g>
<g>
</g>
<g>
</g>
<g>
</g>
<g>
</g>
</svg>
