<?xml version="1.0" encoding="iso-8859-1"?>
<!-- Generator: Adobe Illustrator 18.0.0, SVG Export Plug-In . SVG Version: 6.00 Build 0)  -->
<!DOCTYPE svg PUBLIC "-//W3C//DTD SVG 1.1//EN" "http://www.w3.org/Graphics/SVG/1.1/DTD/svg11.dtd">
<svg version="1.1" id="Capa_1" xmlns="http://www.w3.org/2000/svg" xmlns:xlink="http://www.w3.org/1999/xlink" x="0px" y="0px"
	 viewBox="0 0 404.248 404.248" style="enable-background:new 0 0 404.248 404.248;" xml:space="preserve">
<g>
	<path style="fill:#51B7A6;" d="M230.537,334.418v69.58h-80.73v-117.81l35.94,26.81l11.86-43.76c3.27,2.41,6.35,5.06,9.21,7.92
		C221.477,291.808,230.537,312.058,230.537,334.418z"/>
	<path style="fill:#88C9B3;" d="M197.607,269.238l-11.86,43.76l-35.94-26.81v-0.19c0-0.07-0.03-0.14-0.08-0.19l24.93-28.4
		C182.987,260.118,190.717,264.138,197.607,269.238z"/>
	<path style="fill:#E5DCC6;" d="M174.657,257.408l-24.93,28.4c-0.05-0.04-0.1-0.06-0.17-0.06c-0.07,0-0.12,0.02-0.17,0.06
		l-24.93-28.39c7.9-2.59,16.34-3.98,25.1-3.98C158.317,253.438,166.757,254.828,174.657,257.408z"/>
	<polygon style="fill:#88C9B3;" points="149.807,286.188 149.807,403.998 149.557,403.998 149.557,285.998 	"/>
	<path style="fill:#88C9B3;" d="M149.727,285.808c0.05,0.05,0.08,0.12,0.08,0.19v0.19l-0.25-0.19L149.727,285.808z"/>
	<path style="fill:#88C9B3;" d="M149.557,285.748c0.07,0,0.12,0.02,0.17,0.06l-0.17,0.19l-0.17-0.19
		C149.437,285.768,149.487,285.748,149.557,285.748z"/>
	<polygon style="fill:#88C9B3;" points="149.557,285.998 149.557,403.998 149.307,403.998 149.307,286.188 	"/>
	<path style="fill:#88C9B3;" d="M149.307,285.998c0-0.07,0.03-0.14,0.08-0.19l0.17,0.19l-0.25,0.19V285.998z"/>
	<path style="fill:#88C9B3;" d="M149.557,404.248c-0.14,0-0.25-0.11-0.25-0.25h0.25h0.25
		C149.807,404.138,149.697,404.248,149.557,404.248z"/>
	<path style="fill:#88C9B3;" d="M124.457,257.418l24.93,28.39c-0.05,0.05-0.08,0.12-0.08,0.19v0.19l-35.95,26.81l-11.86-43.75
		C108.397,264.148,116.127,260.118,124.457,257.418z"/>
	<path style="fill:#51B7A6;" d="M149.307,286.188v117.81h-80.73v-69.58c0-26.72,12.95-50.43,32.92-65.17l11.86,43.75
		L149.307,286.188z"/>
	<circle style="fill:#FCF4DE;" cx="149.559" cy="184.158" r="76.58"/>
	<path style="fill:#88C9B3;" d="M168.857,340.998c-0.48,0-0.98-0.05-1.46-0.15c-0.48-0.09-0.95-0.24-1.4-0.42
		c-0.46-0.19-0.89-0.42-1.3-0.69c-0.41-0.28-0.79-0.59-1.14-0.94c-0.35-0.34-0.66-0.73-0.93-1.14c-0.27-0.4-0.5-0.84-0.69-1.29
		c-0.19-0.45-0.33-0.93-0.43-1.4c-0.1-0.49-0.15-0.98-0.15-1.47c0-0.49,0.05-0.98,0.15-1.46s0.24-0.95,0.43-1.41
		c0.19-0.45,0.42-0.89,0.69-1.29c0.27-0.41,0.58-0.8,0.93-1.14c0.35-0.35,0.73-0.66,1.14-0.93s0.84-0.51,1.3-0.69
		c0.45-0.19,0.92-0.34,1.4-0.43c0.97-0.2,1.96-0.2,2.93,0c0.48,0.09,0.95,0.24,1.4,0.43c0.46,0.18,0.89,0.42,1.3,0.69
		s0.79,0.58,1.14,0.93c1.39,1.4,2.2,3.33,2.2,5.3c0,0.49-0.05,0.98-0.15,1.47c-0.1,0.47-0.24,0.95-0.43,1.4
		c-0.19,0.45-0.42,0.89-0.69,1.29c-0.27,0.41-0.59,0.8-0.93,1.14c-0.35,0.35-0.73,0.66-1.14,0.94c-0.41,0.27-0.84,0.5-1.3,0.69
		c-0.45,0.18-0.92,0.33-1.4,0.42C169.847,340.948,169.347,340.998,168.857,340.998z"/>
	<path style="fill:#88C9B3;" d="M168.857,376.468c-0.48,0-0.98-0.05-1.46-0.15c-0.48-0.09-0.95-0.24-1.4-0.42
		c-0.46-0.19-0.89-0.42-1.3-0.69c-0.41-0.28-0.79-0.59-1.14-0.94c-0.35-0.34-0.66-0.73-0.93-1.14c-0.27-0.4-0.5-0.84-0.69-1.29
		c-0.19-0.45-0.33-0.93-0.43-1.4c-0.1-0.49-0.15-0.98-0.15-1.47c0-0.49,0.05-0.98,0.15-1.46s0.24-0.95,0.43-1.41
		c0.19-0.45,0.42-0.89,0.69-1.29c0.27-0.41,0.58-0.8,0.93-1.14c0.35-0.35,0.73-0.66,1.14-0.93s0.84-0.51,1.3-0.69
		c0.45-0.19,0.92-0.34,1.4-0.43c0.97-0.2,1.96-0.2,2.93,0c0.48,0.09,0.95,0.24,1.4,0.43c0.46,0.18,0.89,0.42,1.3,0.69
		s0.79,0.58,1.14,0.93c1.39,1.4,2.2,3.33,2.2,5.3c0,0.49-0.05,0.98-0.15,1.47c-0.1,0.47-0.24,0.95-0.43,1.4
		c-0.19,0.45-0.42,0.89-0.69,1.29c-0.27,0.41-0.59,0.8-0.93,1.14c-0.35,0.35-0.73,0.66-1.14,0.94c-0.41,0.27-0.84,0.5-1.3,0.69
		c-0.45,0.18-0.92,0.33-1.4,0.42C169.847,376.418,169.347,376.468,168.857,376.468z"/>
	<g>
		<path style="fill:#7C6655;" d="M121.557,179.308c-0.49,0-0.98-0.05-1.46-0.15c-0.48-0.09-0.95-0.24-1.41-0.43
			c-0.45-0.18-0.89-0.42-1.29-0.69c-0.41-0.27-0.8-0.58-1.14-0.93c-0.35-0.34-0.66-0.73-0.93-1.14c-0.27-0.4-0.51-0.84-0.69-1.29
			c-0.19-0.46-0.33-0.93-0.43-1.41c-0.1-0.48-0.15-0.97-0.15-1.46c0-1.98,0.8-3.91,2.2-5.3c0.34-0.35,0.73-0.66,1.14-0.94
			c0.4-0.27,0.84-0.5,1.29-0.69c0.46-0.18,0.93-0.33,1.41-0.42c2.43-0.49,5.02,0.3,6.77,2.05c1.39,1.39,2.19,3.32,2.19,5.3
			c0,1.97-0.8,3.91-2.19,5.3C125.467,178.508,123.537,179.308,121.557,179.308z"/>
		<path style="fill:#7C6655;" d="M177.557,179.308c-0.49,0-0.98-0.05-1.46-0.15c-0.48-0.09-0.95-0.24-1.41-0.43
			c-0.45-0.18-0.89-0.42-1.29-0.69c-0.41-0.27-0.8-0.58-1.14-0.93c-0.35-0.34-0.66-0.73-0.93-1.14c-0.27-0.4-0.51-0.84-0.69-1.29
			c-0.19-0.46-0.34-0.93-0.43-1.41c-0.1-0.48-0.15-0.97-0.15-1.46c0-0.49,0.05-0.98,0.15-1.47c0.09-0.47,0.24-0.95,0.43-1.4
			c0.18-0.45,0.42-0.89,0.69-1.29c0.27-0.42,0.58-0.8,0.93-1.15c0.34-0.34,0.73-0.65,1.14-0.93c0.4-0.27,0.84-0.5,1.29-0.69
			c0.46-0.18,0.93-0.33,1.41-0.42c0.96-0.2,1.96-0.2,2.93,0c0.48,0.09,0.95,0.24,1.4,0.42c0.45,0.19,0.89,0.42,1.3,0.69
			c0.41,0.28,0.79,0.59,1.13,0.93c0.35,0.35,0.66,0.73,0.94,1.15c0.27,0.4,0.5,0.84,0.69,1.29c0.18,0.45,0.33,0.93,0.42,1.4
			c0.1,0.49,0.15,0.98,0.15,1.47c0,0.49-0.05,0.98-0.15,1.46c-0.09,0.48-0.24,0.95-0.42,1.41c-0.19,0.45-0.42,0.89-0.69,1.29
			c-0.28,0.41-0.59,0.8-0.94,1.14c-0.34,0.35-0.72,0.66-1.13,0.93c-0.41,0.27-0.85,0.51-1.3,0.69c-0.45,0.19-0.92,0.34-1.4,0.43
			C178.537,179.258,178.047,179.308,177.557,179.308z"/>
	</g>
	<path style="fill:#FCF4DE;" d="M328.171,155.949c-4.143,0-7.5-3.358-7.5-7.5C320.671,74.865,260.806,15,187.221,15
		c-4.142,0-7.5-3.358-7.5-7.5s3.358-7.5,7.5-7.5c81.855,0,148.45,66.594,148.45,148.449
		C335.671,152.591,332.314,155.949,328.171,155.949z"/>
	<path style="fill:#E5DCC6;" d="M288.578,155.949c-4.143,0-7.5-3.358-7.5-7.5c0-51.752-42.104-93.856-93.857-93.856
		c-4.142,0-7.5-3.358-7.5-7.5s3.358-7.5,7.5-7.5c60.024,0,108.857,48.833,108.857,108.856
		C296.078,152.591,292.721,155.949,288.578,155.949z"/>
	<path style="fill:#B5AB9A;" d="M248.986,155.949c-4.143,0-7.5-3.358-7.5-7.5c0-29.921-24.343-54.264-54.264-54.264
		c-4.142,0-7.5-3.358-7.5-7.5s3.358-7.5,7.5-7.5c38.192,0,69.264,31.072,69.264,69.264
		C256.486,152.591,253.128,155.949,248.986,155.949z"/>
	<rect x="142.307" y="286.188" style="fill:#88C9B3;" width="14" height="117.81"/>
</g>
<g>
</g>
<g>
</g>
<g>
</g>
<g>
</g>
<g>
</g>
<g>
</g>
<g>
</g>
<g>
</g>
<g>
</g>
<g>
</g>
<g>
</g>
<g>
</g>
<g>
</g>
<g>
</g>
<g>
</g>
</svg>
