<?xml version="1.0" encoding="iso-8859-1"?>
<!-- Generator: Adobe Illustrator 18.0.0, SVG Export Plug-In . SVG Version: 6.00 Build 0)  -->
<!DOCTYPE svg PUBLIC "-//W3C//DTD SVG 1.1//EN" "http://www.w3.org/Graphics/SVG/1.1/DTD/svg11.dtd">
<svg version="1.1" id="Capa_1" xmlns="http://www.w3.org/2000/svg" xmlns:xlink="http://www.w3.org/1999/xlink" x="0px" y="0px"
	 viewBox="0 0 384.64 384.64" style="enable-background:new 0 0 384.64 384.64;" xml:space="preserve">
<g>
	<rect x="184.825" y="293.7" style="fill:#7C6655;" width="15" height="40.72"/>
	<path style="fill:#E77200;" d="M339.175,146.85h-98.48c0-26.72-21.66-48.37-48.37-48.37V49.97c24.54,0,44.81-18.28,47.95-41.96
		C297.835,27.88,339.175,82.54,339.175,146.85z"/>
	<path style="fill:#51B7A6;" d="M339.175,146.85c0,81.1-65.75,146.85-146.85,146.85c-81.11,0-146.86-65.75-146.86-146.85h98.48
		c0,26.71,21.66,48.37,48.38,48.37c26.71,0,48.37-21.66,48.37-48.37H339.175z"/>
	<path style="fill:#88C9B3;" d="M319.795,146.85c-9.17,62.18-62.75,109.9-127.47,109.9c-64.73,0-118.31-47.72-127.48-109.9h79.1
		c0,26.71,21.66,48.37,48.38,48.37c26.71,0,48.37-21.66,48.37-48.37H319.795z"/>
	<path style="fill:#665040;" d="M199.825,293.7v21.18c-2.49,0.13-4.99,0.19-7.5,0.19s-5.01-0.06-7.5-0.19V293.7H199.825z"/>
	<path style="fill:#E77200;" d="M267.355,382.42v2.22h-150.06v-2.22c0-26.51,21.49-48,48-48h54.06
		C245.865,334.42,267.355,355.91,267.355,382.42z"/>
	<path style="fill:#E77200;" d="M192.325,49.97v48.51c-26.72,0-48.38,21.65-48.38,48.37h-98.48c0-64.31,41.35-118.97,98.91-138.84
		C147.515,31.7,167.775,49.97,192.325,49.97z"/>
	<rect x="186.825" y="39.987" style="fill:#88C9B3;" width="11" height="68.476"/>
	<path style="fill:#7C6655;" d="M192.325,98.48c26.71,0,48.37,21.65,48.37,48.37c0,26.71-21.66,48.37-48.37,48.37
		c-26.72,0-48.38-21.66-48.38-48.37C143.945,120.13,165.605,98.48,192.325,98.48z"/>
	<path style="fill:#665040;" d="M192.323,115.359c17.389,0,31.491,14.095,31.491,31.491c0,17.389-14.101,31.491-31.491,31.491
		c-17.396,0-31.497-14.101-31.497-31.491C160.826,129.454,174.928,115.359,192.323,115.359z"/>
	<path style="fill:#88C9B3;" d="M240.275,8.01c-3.14,23.68-23.41,41.96-47.95,41.96c-24.55,0-44.81-18.27-47.95-41.96V8
		c15.03-5.18,31.16-8,47.95-8S225.245,2.82,240.275,8.01z"/>
	<path style="fill:#51B7A6;" d="M221.116,14.793c-1.885,14.218-14.056,25.194-28.791,25.194c-14.741,0-26.905-10.97-28.791-25.194
		v-0.006c9.025-3.11,18.71-4.803,28.791-4.803S212.091,11.676,221.116,14.793z"/>
	<path style="fill:#FCF4DE;" d="M215.612,154.35c-4.142,0-7.5-3.358-7.5-7.5c0-8.707-7.083-15.79-15.79-15.79
		c-4.142,0-7.5-3.358-7.5-7.5s3.358-7.5,7.5-7.5c16.978,0,30.79,13.812,30.79,30.79C223.112,150.992,219.754,154.35,215.612,154.35z
		"/>
</g>
<g>
</g>
<g>
</g>
<g>
</g>
<g>
</g>
<g>
</g>
<g>
</g>
<g>
</g>
<g>
</g>
<g>
</g>
<g>
</g>
<g>
</g>
<g>
</g>
<g>
</g>
<g>
</g>
<g>
</g>
</svg>
