<?xml version="1.0" encoding="iso-8859-1"?>
<!-- Generator: Adobe Illustrator 18.0.0, SVG Export Plug-In . SVG Version: 6.00 Build 0)  -->
<!DOCTYPE svg PUBLIC "-//W3C//DTD SVG 1.1//EN" "http://www.w3.org/Graphics/SVG/1.1/DTD/svg11.dtd">
<svg version="1.1" id="Capa_1" xmlns="http://www.w3.org/2000/svg" xmlns:xlink="http://www.w3.org/1999/xlink" x="0px" y="0px"
	 viewBox="0 0 447.068 447.068" style="enable-background:new 0 0 447.068 447.068;" xml:space="preserve">
<g>
	<path style="fill:#FCF4DE;" d="M185.435,169.204c-1.181,0-2.379-0.28-3.496-0.87c-29.433-15.549-47.717-45.828-47.717-79.022
		c0-23.433,9.037-45.587,25.447-62.382c16.381-16.766,38.264-26.317,61.616-26.896c1.44-0.044,3.011-0.045,4.541,0.001
		c23.306,0.578,45.187,10.129,61.568,26.895c16.412,16.796,25.451,38.951,25.451,62.382c0,33.193-18.284,63.469-47.718,79.012
		c-3.661,1.935-8.199,0.533-10.134-3.129c-1.935-3.663-0.533-8.2,3.13-10.134c24.501-12.939,39.722-38.132,39.722-65.749
		c0-19.49-7.521-37.922-21.18-51.899c-13.634-13.953-31.836-21.902-51.254-22.384c-1.312-0.039-2.491-0.038-3.713-0.001
		c-19.465,0.482-37.669,8.432-51.302,22.385c-13.655,13.976-21.176,32.408-21.176,51.899c0,27.618,15.221,52.815,39.723,65.759
		c3.663,1.935,5.063,6.472,3.129,10.135C190.729,167.751,188.126,169.204,185.435,169.204z"/>
	<path style="fill:#E5DCC6;" d="M255.4,142.544c-2.367,0-4.695-1.117-6.154-3.204c-2.373-3.395-1.544-8.071,1.851-10.444
		c12.958-9.056,20.694-23.854,20.694-39.584c0-23.696-17.657-44.214-41.073-47.726c-4.707-0.706-9.66-0.706-14.367,0
		c-23.416,3.512-41.074,24.029-41.074,47.726c0,15.73,7.736,30.528,20.694,39.584c3.395,2.373,4.224,7.049,1.851,10.444
		c-2.373,3.395-7.047,4.224-10.444,1.851c-16.97-11.86-27.101-31.254-27.101-51.879c0-31.061,23.15-57.956,53.85-62.56
		c6.176-0.926,12.641-0.926,18.816,0c30.699,4.604,53.849,31.499,53.849,62.56c0,20.625-10.131,40.019-27.101,51.879
		C258.382,142.105,256.884,142.544,255.4,142.544z"/>
	<path style="fill:#7C6655;" d="M282.737,412.883l-14.78,2.59l-44.42-253.08l-44.43,253.08l-14.78-2.59l48.35-275.42l3.47-19.75
		c0.63-3.58,3.74-6.2,7.39-6.2c3.64,0,6.75,2.62,7.38,6.2l3.47,19.75L282.737,412.883z"/>
	<rect x="149.109" y="414.178" style="fill:#51B7A6;" width="148.846" height="32.89"/>
	<rect x="177.767" y="372.211" style="fill:#7C6655;" width="91.578" height="15"/>
	<path style="fill:#665040;" d="M234.387,137.463c-3.36,1.33-7.02,2.05-10.85,2.05s-7.5-0.72-10.86-2.05l3.47-19.75
		c0.63-3.58,3.74-6.2,7.39-6.2c3.64,0,6.75,2.62,7.38,6.2L234.387,137.463z"/>
	<circle style="fill:#E77200;" cx="223.532" cy="89.311" r="29.701"/>
</g>
<g>
</g>
<g>
</g>
<g>
</g>
<g>
</g>
<g>
</g>
<g>
</g>
<g>
</g>
<g>
</g>
<g>
</g>
<g>
</g>
<g>
</g>
<g>
</g>
<g>
</g>
<g>
</g>
<g>
</g>
</svg>
