<?xml version="1.0" encoding="iso-8859-1"?>
<!-- Generator: Adobe Illustrator 18.0.0, SVG Export Plug-In . SVG Version: 6.00 Build 0)  -->
<!DOCTYPE svg PUBLIC "-//W3C//DTD SVG 1.1//EN" "http://www.w3.org/Graphics/SVG/1.1/DTD/svg11.dtd">
<svg version="1.1" id="Capa_1" xmlns="http://www.w3.org/2000/svg" xmlns:xlink="http://www.w3.org/1999/xlink" x="0px" y="0px"
	 viewBox="0 0 386.89 386.89" style="enable-background:new 0 0 386.89 386.89;" xml:space="preserve">
<path style="fill:#51B7A6;" d="M386.89,193.44c0,33.57-8.55,65.14-23.6,92.66l-69.36-33.65l53.53,58.06l-0.01,0.01
	c-35.34,46.41-91.17,76.37-154,76.37C86.61,386.89,0,300.28,0,193.44S86.61,0,193.45,0C300.28,0,386.89,86.6,386.89,193.44z
	 M287.95,82.19c7.23-12.54,2.94-28.57-9.6-35.81s-28.57-2.94-35.81,9.6c-7.24,12.53-2.94,28.57,9.6,35.8
	C264.68,99.02,280.71,94.73,287.95,82.19z M278.35,340.49c12.54-7.24,16.83-23.27,9.6-35.81c-7.24-12.53-23.27-16.83-35.81-9.59
	s-16.84,23.27-9.6,35.81C249.78,343.44,265.81,347.73,278.35,340.49z M288.06,193.44c0-52.26-42.36-94.61-94.61-94.61
	s-94.61,42.35-94.61,94.61c0,52.25,42.36,94.61,94.61,94.61S288.06,245.69,288.06,193.44z M219.66,49.85
	c0-14.48-11.73-26.22-26.21-26.22s-26.21,11.74-26.21,26.22c0,14.47,11.73,26.21,26.21,26.21S219.66,64.32,219.66,49.85z
	 M219.66,337.03c0-14.48-11.73-26.21-26.21-26.21s-26.21,11.73-26.21,26.21s11.73,26.21,26.21,26.21S219.66,351.51,219.66,337.03z
	 M134.76,91.78c12.54-7.23,16.83-23.27,9.59-35.8c-7.23-12.54-23.27-16.84-35.8-9.6c-12.54,7.24-16.84,23.27-9.6,35.81
	C106.19,94.73,122.22,99.02,134.76,91.78z M144.35,330.9c7.24-12.54,2.95-28.57-9.59-35.81c-12.54-7.24-28.57-2.94-35.81,9.59
	c-7.24,12.54-2.94,28.57,9.6,35.81C121.08,347.73,137.12,343.44,144.35,330.9z M91.8,134.75c7.23-12.54,2.94-28.57-9.6-35.81
	C69.66,91.7,53.63,96,46.39,108.53c-7.24,12.54-2.94,28.57,9.6,35.81C68.53,151.58,84.56,147.29,91.8,134.75z M82.2,287.93
	c12.54-7.23,16.83-23.27,9.6-35.8c-7.24-12.54-23.27-16.84-35.81-9.6s-16.84,23.27-9.6,35.81S69.66,295.17,82.2,287.93z
	 M76.07,193.44c0-14.48-11.74-26.22-26.21-26.22c-14.48,0-26.22,11.74-26.22,26.22c0,14.47,11.74,26.21,26.22,26.21
	C64.33,219.65,76.07,207.91,76.07,193.44z"/>
<path style="fill:#88C9B3;" d="M193.45,16.17c97.901,0,177.27,79.351,177.27,177.271c0,97.901-79.37,177.271-177.27,177.271
	S16.18,291.341,16.18,193.44C16.18,95.521,95.549,16.17,193.45,16.17z"/>
<path style="fill:#88C9B3;" d="M193.45,88.83c-57.682,0-104.61,46.928-104.61,104.61s46.928,104.61,104.61,104.61
	c57.683,0,104.61-46.928,104.61-104.61S251.133,88.83,193.45,88.83z"/>
<polygon style="fill:#7C6655;" points="378.29,293.37 359.03,323.07 347.46,310.51 293.93,252.45 363.29,286.1 "/>
<path style="fill:#C65C05;" d="M278.35,46.38c12.54,7.24,16.83,23.27,9.6,35.81c-7.24,12.54-23.27,16.83-35.81,9.59
	c-12.54-7.23-16.84-23.27-9.6-35.8C249.78,43.44,265.81,39.14,278.35,46.38z"/>
<path style="fill:#E77200;" d="M265.229,85.298c-2.822,0-5.62-0.753-8.089-2.179c-3.755-2.165-6.438-5.659-7.56-9.842
	c-1.121-4.183-0.547-8.549,1.617-12.294c2.893-5.01,8.283-8.12,14.072-8.12c2.82,0,5.614,0.753,8.08,2.176
	c7.74,4.469,10.403,14.408,5.937,22.155C276.402,82.191,271.014,85.298,265.229,85.298z"/>
<path style="fill:#C65C05;" d="M287.95,304.68c7.23,12.54,2.94,28.57-9.6,35.81c-12.54,7.24-28.57,2.95-35.81-9.59
	c-7.24-12.54-2.94-28.57,9.6-35.81S280.71,292.15,287.95,304.68z"/>
<path style="fill:#E77200;" d="M265.262,334.008c-5.786,0-11.174-3.107-14.062-8.108c-4.47-7.742-1.805-17.678,5.94-22.15
	c2.467-1.424,5.261-2.176,8.082-2.176c5.788,0,11.179,3.107,14.069,8.109c4.462,7.739,1.799,17.678-5.941,22.146
	C270.882,333.255,268.084,334.008,265.262,334.008z"/>
<path style="fill:#C65C05;" d="M193.45,98.83c52.25,0,94.61,42.35,94.61,94.61c0,52.25-42.36,94.61-94.61,94.61
	s-94.61-42.36-94.61-94.61C98.84,141.18,141.2,98.83,193.45,98.83z"/>
<path style="fill:#E77200;" d="M270.56,193.44c0,33.81-21.87,62.6-52.2,72.98c-7.82,2.68-16.2,4.13-24.91,4.13
	c-9.99,0-19.55-1.91-28.32-5.39c-13.05-5.17-24.37-13.81-32.8-24.77c-10.03-13.01-15.99-29.3-15.99-46.95
	c0-42.52,34.59-77.11,77.11-77.11c1.41,0,2.8,0.04,4.19,0.12c14.38,0.77,27.72,5.5,38.95,13.11c14.95,10.12,26.17,25.36,31.14,43.18
	C269.58,179.33,270.56,186.27,270.56,193.44z"/>
<path style="fill:#C65C05;" d="M193.45,23.63c14.48,0,26.21,11.74,26.21,26.22c0,14.47-11.73,26.21-26.21,26.21
	s-26.21-11.74-26.21-26.21C167.24,35.37,178.97,23.63,193.45,23.63z"/>
<path style="fill:#E77200;" d="M193.45,66.06c-8.938,0-16.21-7.272-16.21-16.21c0-8.944,7.272-16.22,16.21-16.22
	c8.938,0,16.21,7.276,16.21,16.22C209.66,58.788,202.388,66.06,193.45,66.06z"/>
<path style="fill:#C65C05;" d="M193.45,310.82c14.48,0,26.21,11.73,26.21,26.21s-11.73,26.21-26.21,26.21s-26.21-11.73-26.21-26.21
	S178.97,310.82,193.45,310.82z"/>
<path style="fill:#E77200;" d="M193.45,353.24c-8.938,0-16.21-7.272-16.21-16.21s7.272-16.21,16.21-16.21
	c8.938,0,16.21,7.272,16.21,16.21S202.388,353.24,193.45,353.24z"/>
<path style="fill:#C65C05;" d="M144.35,55.98c7.24,12.53,2.95,28.57-9.59,35.8c-12.54,7.24-28.57,2.95-35.81-9.59
	c-7.24-12.54-2.94-28.57,9.6-35.81C121.08,39.14,137.12,43.44,144.35,55.98z"/>
<path style="fill:#E77200;" d="M121.671,85.298c-5.785,0-11.173-3.107-14.061-8.108c-2.166-3.751-2.74-8.12-1.619-12.303
	c1.122-4.183,3.807-7.681,7.559-9.847c2.465-1.424,5.256-2.176,8.076-2.176c5.789,0,11.176,3.108,14.061,8.111
	c2.17,3.756,2.746,8.124,1.626,12.306c-1.12,4.182-3.8,7.675-7.547,9.836C127.291,84.545,124.494,85.298,121.671,85.298z"/>
<path style="fill:#C65C05;" d="M134.76,295.09c12.54,7.24,16.83,23.27,9.59,35.81c-7.23,12.54-23.27,16.83-35.8,9.59
	c-12.54-7.24-16.84-23.27-9.6-35.81C106.19,292.15,122.22,287.85,134.76,295.09z"/>
<path style="fill:#E77200;" d="M121.635,334.008c-2.822,0-5.616-0.752-8.081-2.177c-3.756-2.168-6.44-5.666-7.563-9.849
	c-1.121-4.183-0.546-8.552,1.619-12.302c2.889-5,8.28-8.107,14.067-8.107c2.821,0,5.616,0.752,8.083,2.176
	c3.75,2.166,6.433,5.662,7.553,9.844c1.12,4.183,0.543,8.553-1.623,12.306C132.805,330.903,127.42,334.008,121.635,334.008z"/>
<path style="fill:#C65C05;" d="M82.2,98.94c12.54,7.24,16.83,23.27,9.6,35.81c-7.24,12.54-23.27,16.83-35.81,9.59
	c-12.54-7.24-16.84-23.27-9.6-35.81C53.63,96,69.66,91.7,82.2,98.94z"/>
<path style="fill:#E77200;" d="M69.079,137.858c-2.823,0-5.62-0.753-8.089-2.179c-3.752-2.167-6.437-5.664-7.559-9.847
	c-1.122-4.183-0.547-8.552,1.619-12.303c2.889-4.999,8.28-8.106,14.067-8.106c2.821,0,5.616,0.752,8.083,2.176
	c7.74,4.469,10.404,14.408,5.937,22.155C80.252,134.752,74.865,137.858,69.079,137.858z"/>
<path style="fill:#C65C05;" d="M91.8,252.13c7.23,12.53,2.94,28.57-9.6,35.8c-12.54,7.24-28.57,2.95-35.81-9.59
	s-2.94-28.57,9.6-35.81S84.56,239.59,91.8,252.13z"/>
<path style="fill:#E77200;" d="M69.111,281.449c-5.785,0-11.173-3.107-14.061-8.109c-4.469-7.742-1.805-17.678,5.94-22.15
	c2.466-1.423,5.26-2.176,8.081-2.176c5.788,0,11.179,3.11,14.069,8.116c2.162,3.747,2.736,8.116,1.615,12.3
	c-1.121,4.183-3.802,7.677-7.549,9.837C74.731,280.695,71.934,281.449,69.111,281.449z"/>
<path style="fill:#C65C05;" d="M49.86,167.22c14.47,0,26.21,11.74,26.21,26.22c0,14.47-11.74,26.21-26.21,26.21
	c-14.48,0-26.22-11.74-26.22-26.21C23.64,178.96,35.38,167.22,49.86,167.22z"/>
<path style="fill:#E77200;" d="M49.86,209.65c-8.944,0-16.22-7.272-16.22-16.21c0-8.944,7.276-16.22,16.22-16.22
	c8.938,0,16.21,7.276,16.21,16.22C66.07,202.378,58.798,209.65,49.86,209.65z"/>
<path style="fill:#FCF4DE;" d="M236.59,129.56l-71.46,135.6c-13.05-5.17-24.37-13.81-32.8-24.77l65.31-123.94
	C212.02,117.22,225.36,121.95,236.59,129.56z"/>
<path style="fill:#FCF4DE;" d="M270.56,193.44c0,33.81-21.87,62.6-52.2,72.98l49.37-93.68
	C269.58,179.33,270.56,186.27,270.56,193.44z"/>
<g>
</g>
<g>
</g>
<g>
</g>
<g>
</g>
<g>
</g>
<g>
</g>
<g>
</g>
<g>
</g>
<g>
</g>
<g>
</g>
<g>
</g>
<g>
</g>
<g>
</g>
<g>
</g>
<g>
</g>
</svg>
