<?xml version="1.0" encoding="iso-8859-1"?>
<!-- Generator: Adobe Illustrator 18.0.0, SVG Export Plug-In . SVG Version: 6.00 Build 0)  -->
<!DOCTYPE svg PUBLIC "-//W3C//DTD SVG 1.1//EN" "http://www.w3.org/Graphics/SVG/1.1/DTD/svg11.dtd">
<svg version="1.1" id="Capa_1" xmlns="http://www.w3.org/2000/svg" xmlns:xlink="http://www.w3.org/1999/xlink" x="0px" y="0px"
	 viewBox="0 0 433 433" style="enable-background:new 0 0 433 433;" xml:space="preserve">
<g>
	<rect x="91.5" y="367" style="fill:#7C6655;" width="125" height="39"/>
	<rect x="216.5" y="367" style="fill:#7C6655;" width="125" height="39"/>
	<path style="fill:#88C9B3;" d="M368.5,19.28v394.44c0,10.65-8.64,19.28-19.28,19.28H83.78c-10.65,0-19.28-8.63-19.28-19.28V19.28
		C64.5,8.63,73.13,0,83.78,0h265.44C359.86,0,368.5,8.63,368.5,19.28z M341.5,406v-39V27h-250v340v39h125H341.5z"/>
	<polygon style="fill:#7C6655;" points="341.5,27 341.5,367 216.5,367 91.5,367 91.5,27 	"/>
	<g>
		<rect x="188.204" y="71.501" style="fill:#FCF4DE;" width="56.585" height="15"/>
		<rect x="128.922" y="104.528" style="fill:#FCF4DE;" width="175.149" height="15"/>
		<rect x="128.922" y="137.554" style="fill:#FCF4DE;" width="175.149" height="15"/>
		<rect x="128.922" y="170.581" style="fill:#FCF4DE;" width="175.149" height="15"/>
		<rect x="128.922" y="203.608" style="fill:#FCF4DE;" width="175.149" height="15"/>
		<rect x="128.922" y="236.634" style="fill:#FCF4DE;" width="175.149" height="15"/>
		<rect x="128.922" y="269.661" style="fill:#FCF4DE;" width="175.149" height="15"/>
		<rect x="128.922" y="302.687" style="fill:#FCF4DE;" width="175.149" height="15"/>
	</g>
	<rect x="209" y="367" style="fill:#88C9B3;" width="15" height="39"/>
	<rect x="91.5" y="349.5" style="fill:#88C9B3;" width="250" height="17.5"/>
</g>
<g>
</g>
<g>
</g>
<g>
</g>
<g>
</g>
<g>
</g>
<g>
</g>
<g>
</g>
<g>
</g>
<g>
</g>
<g>
</g>
<g>
</g>
<g>
</g>
<g>
</g>
<g>
</g>
<g>
</g>
</svg>
