<?xml version="1.0" encoding="iso-8859-1"?>
<!-- Generator: Adobe Illustrator 18.0.0, SVG Export Plug-In . SVG Version: 6.00 Build 0)  -->
<!DOCTYPE svg PUBLIC "-//W3C//DTD SVG 1.1//EN" "http://www.w3.org/Graphics/SVG/1.1/DTD/svg11.dtd">
<svg version="1.1" id="Capa_1" xmlns="http://www.w3.org/2000/svg" xmlns:xlink="http://www.w3.org/1999/xlink" x="0px" y="0px"
	 viewBox="0 0 390.39 390.39" style="enable-background:new 0 0 390.39 390.39;" xml:space="preserve">
<g>
	<polygon style="fill:#E77200;" points="219.72,15.203 219.72,15.493 203.42,43.703 178.92,43.703 195.39,15.203 	"/>
	<path style="fill:#C65C05;" d="M251.43,15.203v13.04c0,8.54-6.92,15.46-15.46,15.46h-32.55l16.3-28.21v-0.29H251.43z"/>
	<path style="fill:#C65C05;" d="M195.39,15.203l-16.47,28.5h-24.51c-8.54,0-15.46-6.92-15.46-15.46v-13.04H195.39z"/>
	<path style="fill:#7C6655;" d="M360.79,271.533v8.36c0,5.48-0.5,10.85-1.45,16.06c-7.58,41.6-44.09,73.23-87.85,73.23h-7.5v-15h7.5
		c35.05,0,64.5-24.38,72.28-57.08c1.32-5.53,2.02-11.29,2.02-17.21v-8.36H360.79z"/>
	<path style="fill:#7C6655;" d="M360.786,154.857h-15V117.06c0-52.026-42.326-94.353-94.353-94.353H138.948
		c-52.021,0-94.343,42.322-94.343,94.343v37.807h-15V117.05c0-60.292,49.051-109.343,109.343-109.343h112.485
		c60.297,0,109.353,49.055,109.353,109.353V154.857z"/>
	<path style="fill:#E77200;" d="M265.34,346.833c3.8,3.8,6.15,9.06,6.15,14.85c0,11.6-9.4,21-21,21v-42
		C256.29,340.682,261.54,343.033,265.34,346.833z"/>
	<path style="fill:#88C9B3;" d="M250.49,340.682v42h-14.9c-5.79,0-11.05-2.35-14.85-6.15c-3.8-3.8-6.15-9.05-6.15-14.85
		c0-11.59,9.41-21,21-21H250.49z"/>
	<path style="fill:#88C9B3;" d="M337.1,279.193c-1.34,6.33-6.97,11.09-13.71,11.09c-7.73,0-14-6.27-14-14v-126.18
		c0-3.87,1.57-7.37,4.1-9.9s6.03-4.1,9.9-4.1c6.74,0,12.37,4.76,13.71,11.09c0.2,0.94,0.3,1.91,0.3,2.91v126.18
		C337.4,277.283,337.3,278.253,337.1,279.193z"/>
	<path style="fill:#665040;" d="M360.79,271.533v8.36c0,5.48-0.5,10.85-1.45,16.06c-3.09,0.75-6.33,1.15-9.66,1.15h-5.91
		c1.32-5.53,2.02-11.29,2.02-17.21v-8.36H360.79z"/>
	<path style="fill:#88C9B3;" d="M53.3,147.193c1.34-6.33,6.97-11.09,13.7-11.09c3.86,0,7.36,1.57,9.9,4.1
		c2.53,2.53,4.1,6.03,4.1,9.9v126.18c0,7.73-6.27,14-14,14c-6.73,0-12.36-4.76-13.7-11.09c-0.2-0.94-0.3-1.91-0.3-2.91v-126.18
		C53,149.103,53.1,148.133,53.3,147.193z"/>
	<path style="fill:#E77200;" d="M390.39,187.903v50.58c0,22.48-18.23,40.71-40.71,40.71H337.1c0.2-0.94,0.3-1.91,0.3-2.91v-126.18
		c0-1-0.1-1.97-0.3-2.91h12.58C372.16,147.193,390.39,165.423,390.39,187.903z"/>
	<path style="fill:#E77200;" d="M53,276.283c0,1,0.1,1.97,0.3,2.91H40.71c-22.48,0-40.71-18.23-40.71-40.71v-50.58
		c0-22.48,18.23-40.71,40.71-40.71H53.3c-0.2,0.94-0.3,1.91-0.3,2.91V276.283z"/>
	<path style="fill:#C65C05;" d="M53,276.283c0,1,0.1,1.97,0.3,2.91H42.5v-132h10.8c-0.2,0.94-0.3,1.91-0.3,2.91V276.283z"/>
	<path style="fill:#C65C05;" d="M337.4,276.283c0,1-0.1,1.97-0.3,2.91h10.8v-132h-10.8c0.2,0.94,0.3,1.91,0.3,2.91V276.283z"/>
</g>
<g>
</g>
<g>
</g>
<g>
</g>
<g>
</g>
<g>
</g>
<g>
</g>
<g>
</g>
<g>
</g>
<g>
</g>
<g>
</g>
<g>
</g>
<g>
</g>
<g>
</g>
<g>
</g>
<g>
</g>
</svg>
