<?xml version="1.0" encoding="iso-8859-1"?>
<!-- Generator: Adobe Illustrator 18.0.0, SVG Export Plug-In . SVG Version: 6.00 Build 0)  -->
<!DOCTYPE svg PUBLIC "-//W3C//DTD SVG 1.1//EN" "http://www.w3.org/Graphics/SVG/1.1/DTD/svg11.dtd">
<svg version="1.1" id="Capa_1" xmlns="http://www.w3.org/2000/svg" xmlns:xlink="http://www.w3.org/1999/xlink" x="0px" y="0px"
	 viewBox="0 0 362.82 362.82" style="enable-background:new 0 0 362.82 362.82;" xml:space="preserve">
<polygon style="fill:#51B7A6;" points="362.82,262.8 312.19,262.8 276.98,327.75 241.76,262.8 0,262.8 103.62,157.93 112.5,148.94 
	112.51,148.93 181.41,218.66 250.3,148.93 250.31,148.94 259.19,157.93 "/>
<polygon style="fill:#88C9B3;" points="362.82,35.07 362.82,262.8 259.19,157.93 250.31,148.94 250.3,148.93 362.81,35.07 "/>
<polygon style="fill:#88C9B3;" points="112.51,148.93 112.5,148.94 103.62,157.93 0,262.8 0,35.07 "/>
<polygon style="fill:#E77200;" points="362.81,35.07 250.3,148.93 181.41,218.66 112.51,148.93 0,35.07 "/>
<polygon style="fill:#51B7A6;" points="362.81,35.07 362.81,53.07 259.19,157.93 250.3,166.93 181.41,236.66 112.51,166.93 
	103.62,157.93 0,53.07 0,35.07 112.51,148.93 181.41,218.66 250.3,148.93 "/>
<g>
</g>
<g>
</g>
<g>
</g>
<g>
</g>
<g>
</g>
<g>
</g>
<g>
</g>
<g>
</g>
<g>
</g>
<g>
</g>
<g>
</g>
<g>
</g>
<g>
</g>
<g>
</g>
<g>
</g>
</svg>
