<?xml version="1.0" encoding="iso-8859-1"?>
<!-- Generator: Adobe Illustrator 18.0.0, SVG Export Plug-In . SVG Version: 6.00 Build 0)  -->
<!DOCTYPE svg PUBLIC "-//W3C//DTD SVG 1.1//EN" "http://www.w3.org/Graphics/SVG/1.1/DTD/svg11.dtd">
<svg version="1.1" id="Capa_1" xmlns="http://www.w3.org/2000/svg" xmlns:xlink="http://www.w3.org/1999/xlink" x="0px" y="0px"
	 viewBox="0 0 364.39 364.39" style="enable-background:new 0 0 364.39 364.39;" xml:space="preserve">
<g>
	<polygon style="fill:#88C9B3;" points="364.39,278.15 364.39,309.21 325.6,309.21 325.6,289.22 325.6,255.75 	"/>
	<polygon style="fill:#51B7A6;" points="364.39,144.48 364.39,278.15 325.6,255.75 325.6,122.09 	"/>
	<polygon style="fill:#88C9B3;" points="364.39,110.25 364.39,144.48 325.6,122.09 325.6,87.86 	"/>
	<polygon style="fill:#51B7A6;" points="364.39,30.63 364.39,110.25 325.6,87.86 325.6,50.61 325.6,30.63 	"/>
	<polygon style="fill:#C65C05;" points="325.6,50.61 325.6,289.22 236.14,266.19 211.22,259.77 124.32,237.39 99.38,230.97 
		38.79,215.37 38.79,124.47 	"/>
	<polygon style="fill:#E77200;" points="325.6,50.61 325.6,263.17 236.14,240.14 211.22,233.72 124.32,211.34 99.38,204.92 
		38.79,189.32 38.79,124.47 	"/>
	<path style="fill:#7C6655;" d="M236.14,266.19c-0.49,8.13-2.32,15.89-5.29,23.07c-10.78,26.12-36.5,44.5-66.5,44.5
		c-39.72,0-71.91-32.21-71.91-71.93c0-2.74,0.15-5.44,0.45-8.1c0.9-8.07,3.14-15.73,6.49-22.76l24.94,6.42v0.01
		c-4.21,6.83-6.55,14.59-6.84,22.66c-0.03,0.59-0.04,1.18-0.04,1.77c0,25.88,21.04,46.93,46.91,46.93
		c18.29,0,34.18-10.53,41.91-25.84c3.21-6.35,5.01-13.51,5.01-21.09c0-0.69-0.02-1.37-0.05-2.05v-0.01L236.14,266.19z"/>
	<polygon style="fill:#51B7A6;" points="38.79,191.59 38.79,215.37 38.79,227.49 0,227.49 0,169.2 	"/>
	<path style="fill:#665040;" d="M99.38,230.97l24.94,6.42v0.01c-4.21,6.83-6.55,14.59-6.84,22.66l-0.66-0.17l-23.93-6.16
		C93.79,245.66,96.03,238,99.38,230.97z"/>
	<path style="fill:#665040;" d="M236.14,266.19c-0.49,8.13-2.32,15.89-5.29,23.07l-2.21-0.57l-22.38-5.77
		c3.21-6.35,5.01-13.51,5.01-21.09c0-0.69-0.02-1.37-0.05-2.05v-0.01L236.14,266.19z"/>
	<polygon style="fill:#88C9B3;" points="38.79,160.04 38.79,191.59 0,169.2 0,137.64 	"/>
	<polygon style="fill:#51B7A6;" points="38.79,124.47 38.79,160.04 0,137.64 0,112.34 38.79,112.34 	"/>
</g>
<g>
</g>
<g>
</g>
<g>
</g>
<g>
</g>
<g>
</g>
<g>
</g>
<g>
</g>
<g>
</g>
<g>
</g>
<g>
</g>
<g>
</g>
<g>
</g>
<g>
</g>
<g>
</g>
<g>
</g>
</svg>
