<?xml version="1.0" encoding="iso-8859-1"?>
<!-- Generator: Adobe Illustrator 18.0.0, SVG Export Plug-In . SVG Version: 6.00 Build 0)  -->
<!DOCTYPE svg PUBLIC "-//W3C//DTD SVG 1.1//EN" "http://www.w3.org/Graphics/SVG/1.1/DTD/svg11.dtd">
<svg version="1.1" id="Capa_1" xmlns="http://www.w3.org/2000/svg" xmlns:xlink="http://www.w3.org/1999/xlink" x="0px" y="0px"
	 viewBox="0 0 415.757 415.757" style="enable-background:new 0 0 415.757 415.757;" xml:space="preserve">
<g>
	<path style="fill:#C65C05;" d="M284.38,67.417c57.41,57.41,83.14,124.76,57.47,150.43c-25.67,25.66-93.02-0.07-150.43-57.47
		c-57.41-57.41-83.14-124.76-57.47-150.43S226.97,10.007,284.38,67.417z"/>
	<polygon style="fill:#7C6655;" points="262.84,388.757 262.84,415.757 63.96,415.757 63.96,388.757 86.39,388.757 163.4,388.757 
		240.41,388.757 	"/>
	<polygon style="fill:#665040;" points="188.84,388.757 188.84,415.757 262.84,415.757 262.84,388.757 254.494,388.757 
		225.84,388.757 197.186,388.757 	"/>
	<path style="fill:#51B7A6;" d="M240.41,388.757H163.4v-145.51l1.13-1.92c11.37,6.55,23.42,11.45,35.81,14.71v0.01l4.75,15.74
		L240.41,388.757z"/>
	<path style="fill:#88C9B3;" d="M164.53,241.326l-1.13,1.92v145.51H86.39l44.73-152.98l4.7-16.09
		C144.67,228.226,154.32,235.436,164.53,241.326z"/>
	<polygon style="fill:#7C6655;" points="314.98,47.426 217.28,145.116 191.42,170.976 180.82,160.376 206.68,134.516 304.37,36.816 
			"/>
	<polygon style="fill:#7C6655;" points="313.46,26.017 157.24,64.936 123.01,73.467 119.38,58.907 151.35,50.946 309.84,11.467 	"/>
	<polygon style="fill:#7C6655;" points="340.33,41.957 300.86,200.436 292.89,232.416 278.33,228.787 286.86,194.537 325.78,38.337 
			"/>
	<path style="fill:#665040;" d="M151.35,50.946c1.67,4.55,3.64,9.23,5.89,13.99l-34.23,8.53l-3.63-14.56L151.35,50.946z"/>
	<path style="fill:#665040;" d="M211.92,139.876c1.78,1.78,3.57,3.53,5.36,5.24l-25.86,25.86l-10.6-10.6l25.86-25.86
		C208.39,136.306,210.14,138.097,211.92,139.876z"/>
	<path style="fill:#665040;" d="M300.86,200.436l-7.97,31.98l-14.56-3.63l8.53-34.25C291.63,196.796,296.3,198.766,300.86,200.436z"
		/>
	<path style="fill:#45A391;" d="M205.09,271.787c-4.28-0.72-8.54-1.64-12.75-2.75c-9.92-2.61-19.63-6.28-28.94-11
		c-2.32-1.17-4.61-2.4-6.87-3.71c-8.95-5.16-17.47-11.34-25.41-18.55l4.7-16.09c8.85,8.54,18.5,15.75,28.71,21.64
		c11.37,6.55,23.42,11.45,35.81,14.71v0.01L205.09,271.787z"/>
	<path style="fill:#51B7A6;" d="M164.53,241.326l-1.13,1.92v14.79c-2.32-1.17-4.61-2.4-6.87-3.71
		c-8.95-5.16-17.47-11.34-25.41-18.55l4.7-16.09C144.67,228.226,154.32,235.436,164.53,241.326z"/>
	<circle style="fill:#51B7A6;" cx="317.805" cy="33.992" r="27"/>
	<path style="fill:#E77200;" d="M191.42,160.377c57.41,57.4,124.76,83.13,150.43,57.47c-38.34,38.34-92.6,51.07-141.51,38.19
		c-12.39-3.26-24.44-8.16-35.81-14.71c-10.21-5.89-19.86-13.1-28.71-21.64c-0.63-0.61-1.25-1.22-1.87-1.84
		c-57.41-57.41-57.41-150.49,0-207.9C108.28,35.617,134.01,102.967,191.42,160.377z"/>
</g>
<g>
</g>
<g>
</g>
<g>
</g>
<g>
</g>
<g>
</g>
<g>
</g>
<g>
</g>
<g>
</g>
<g>
</g>
<g>
</g>
<g>
</g>
<g>
</g>
<g>
</g>
<g>
</g>
<g>
</g>
</svg>
