<?xml version="1.0" encoding="iso-8859-1"?>
<!-- Generator: Adobe Illustrator 18.0.0, SVG Export Plug-In . SVG Version: 6.00 Build 0)  -->
<!DOCTYPE svg PUBLIC "-//W3C//DTD SVG 1.1//EN" "http://www.w3.org/Graphics/SVG/1.1/DTD/svg11.dtd">
<svg version="1.1" id="Capa_1" xmlns="http://www.w3.org/2000/svg" xmlns:xlink="http://www.w3.org/1999/xlink" x="0px" y="0px"
	 viewBox="0 0 435.06 435.06" style="enable-background:new 0 0 435.06 435.06;" xml:space="preserve">
<polygon style="fill:#FCF4DE;" points="402.235,205.36 402.235,289.43 352.085,289.43 325.695,289.43 288.865,289.43 288.865,326.4 
	219.745,247.4 288.865,168.39 288.865,205.36 325.695,205.36 352.085,205.36 "/>
<polygon style="fill:#88C9B3;" points="146.195,97.42 215.315,176.43 146.195,255.43 146.195,218.46 109.365,218.46 82.975,218.46 
	32.825,218.46 32.825,134.4 82.975,134.4 109.365,134.4 146.195,134.4 "/>
<polygon style="fill:#E77200;" points="288.865,205.36 288.865,168.39 219.745,247.4 228.495,257.4 288.865,326.4 288.865,289.43 
	325.695,289.43 325.695,366.71 109.365,366.71 109.365,218.46 146.195,218.46 146.195,255.43 206.565,186.43 215.315,176.43 
	146.195,97.42 146.195,134.4 109.365,134.4 109.365,68.35 325.695,68.35 325.695,205.36 "/>
<path style="fill:#7C6655;" d="M352.085,21.98v183.38h-26.39V68.35h-216.33v66.05h-26.39V21.98c0-12.14,9.84-21.98,21.98-21.98
	h225.15C342.245,0,352.085,9.84,352.085,21.98z M251.955,34.84c0-4.14-3.36-7.5-7.5-7.5h-53.85c-4.14,0-7.5,3.36-7.5,7.5
	s3.36,7.5,7.5,7.5h53.85C248.595,42.34,251.955,38.98,251.955,34.84z"/>
<path style="fill:#7C6655;" d="M325.695,289.43v77.28h-216.33V218.46h-26.39v194.63c0,12.13,9.84,21.97,21.98,21.97h225.15
	c12.14,0,21.98-9.84,21.98-21.97V289.43H325.695z M217.535,410.71c-6.42,0-11.62-5.2-11.62-11.61c0-6.42,5.2-11.62,11.62-11.62
	c6.41,0,11.61,5.2,11.61,11.62C229.145,405.51,223.945,410.71,217.535,410.71z"/>
<rect x="288.865" y="289.43" style="fill:#C65C05;" width="36.83" height="20"/>
<path style="fill:#665040;" d="M244.455,27.34c4.14,0,7.5,3.36,7.5,7.5s-3.36,7.5-7.5,7.5h-53.85c-4.14,0-7.5-3.36-7.5-7.5
	s3.36-7.5,7.5-7.5H244.455z"/>
<path style="fill:#665040;" d="M217.535,387.48c6.41,0,11.61,5.2,11.61,11.62c0,6.41-5.2,11.61-11.61,11.61
	c-6.42,0-11.62-5.2-11.62-11.61C205.915,392.68,211.115,387.48,217.535,387.48z"/>
<polygon style="fill:#C65C05;" points="228.495,257.4 288.865,326.4 288.865,346.4 219.745,267.4 "/>
<rect x="325.695" y="289.43" style="fill:#665040;" width="26.39" height="20"/>
<rect x="109.365" y="218.46" style="fill:#C65C05;" width="36.83" height="20"/>
<rect x="82.975" y="218.46" style="fill:#665040;" width="26.39" height="20"/>
<polygon style="fill:#C65C05;" points="215.315,196.43 146.195,275.43 146.195,255.43 206.565,186.43 "/>
<g>
</g>
<g>
</g>
<g>
</g>
<g>
</g>
<g>
</g>
<g>
</g>
<g>
</g>
<g>
</g>
<g>
</g>
<g>
</g>
<g>
</g>
<g>
</g>
<g>
</g>
<g>
</g>
<g>
</g>
</svg>
