<?xml version="1.0" encoding="iso-8859-1"?>
<!-- Generator: Adobe Illustrator 18.0.0, SVG Export Plug-In . SVG Version: 6.00 Build 0)  -->
<!DOCTYPE svg PUBLIC "-//W3C//DTD SVG 1.1//EN" "http://www.w3.org/Graphics/SVG/1.1/DTD/svg11.dtd">
<svg version="1.1" id="Capa_1" xmlns="http://www.w3.org/2000/svg" xmlns:xlink="http://www.w3.org/1999/xlink" x="0px" y="0px"
	 viewBox="0 0 365.34 365.34" style="enable-background:new 0 0 365.34 365.34;" xml:space="preserve">
<path style="fill:#E77200;" d="M189.165,216.21c17.63,0.64,35.47-5.77,48.92-19.22l46.52-46.52l-60.53-60.52
	c-12.84-12.85-29.68-19.27-46.52-19.27c-16.83,0-33.66,6.42-46.51,19.27c-11.06,11.06-17.35,25.06-18.89,39.48l-31.42,41.63h40.85
	c2.63,4.24,5.78,8.24,9.46,11.92l14,14.01C157.285,209.23,173.135,215.64,189.165,216.21z M334.185,33.63v235.76
	c0,18.58-15.06,33.64-33.63,33.64h-41.55l-34.74,62.31l-34.74-62.31H64.795c-18.58,0-33.64-15.06-33.64-33.64V33.63
	C31.155,15.06,46.215,0,64.795,0h235.76C319.125,0,334.185,15.06,334.185,33.63z"/>
<path style="fill:#665040;" d="M189.162,249.006c-4.143,0-7.5-3.358-7.5-7.5v-25.297c0-4.142,3.357-7.5,7.5-7.5s7.5,3.358,7.5,7.5
	v25.297C196.662,245.648,193.305,249.006,189.162,249.006z"/>
<path style="fill:#88C9B3;" d="M121.585,171.06c-7.82-12.63-10.96-27.33-9.43-41.63c1.54-14.42,7.83-28.42,18.89-39.48
	c12.85-12.85,29.68-19.27,46.51-19.27c16.84,0,33.68,6.42,46.52,19.27l60.53,60.52l-46.52,46.52
	c-13.45,13.45-31.29,19.86-48.92,19.22c-16.03-0.57-31.88-6.98-44.12-19.22l-14-14.01C127.365,179.3,124.215,175.3,121.585,171.06z"
	/>
<path style="fill:#FCF4DE;" d="M121.585,171.06h-40.85l31.42-41.63C110.625,143.73,113.765,158.43,121.585,171.06z"/>
<g>
	<path style="fill:#7C6655;" d="M141.244,143.19c-0.479,0-0.979-0.05-1.46-0.15c-0.479-0.1-0.949-0.24-1.409-0.43
		c-0.45-0.19-0.881-0.42-1.29-0.69c-0.41-0.27-0.79-0.59-1.141-0.93c-1.399-1.4-2.2-3.33-2.2-5.3c0-0.49,0.051-0.99,0.15-1.47
		s0.24-0.95,0.43-1.4c0.19-0.46,0.42-0.89,0.69-1.3c0.27-0.41,0.58-0.79,0.93-1.14c0.351-0.34,0.73-0.66,1.141-0.93
		c0.409-0.27,0.84-0.5,1.29-0.69c0.46-0.19,0.93-0.33,1.409-0.43c0.971-0.19,1.96-0.19,2.931,0c0.479,0.1,0.95,0.24,1.399,0.43
		c0.46,0.19,0.891,0.42,1.301,0.69c0.409,0.27,0.79,0.59,1.14,0.93c0.34,0.35,0.66,0.73,0.93,1.14c0.271,0.41,0.5,0.84,0.69,1.3
		c0.189,0.45,0.33,0.92,0.43,1.4c0.09,0.48,0.14,0.98,0.14,1.47c0,0.48-0.05,0.98-0.14,1.46c-0.1,0.48-0.24,0.95-0.43,1.4
		c-0.19,0.46-0.42,0.89-0.69,1.3c-0.27,0.41-0.59,0.79-0.93,1.14c-0.35,0.34-0.73,0.66-1.14,0.93c-0.41,0.27-0.841,0.5-1.301,0.69
		c-0.449,0.19-0.92,0.33-1.399,0.43C142.235,143.14,141.735,143.19,141.244,143.19z"/>
</g>
<g>
</g>
<g>
</g>
<g>
</g>
<g>
</g>
<g>
</g>
<g>
</g>
<g>
</g>
<g>
</g>
<g>
</g>
<g>
</g>
<g>
</g>
<g>
</g>
<g>
</g>
<g>
</g>
<g>
</g>
</svg>
