<?xml version="1.0" encoding="iso-8859-1"?>
<!-- Generator: Adobe Illustrator 18.0.0, SVG Export Plug-In . SVG Version: 6.00 Build 0)  -->
<!DOCTYPE svg PUBLIC "-//W3C//DTD SVG 1.1//EN" "http://www.w3.org/Graphics/SVG/1.1/DTD/svg11.dtd">
<svg version="1.1" id="Capa_1" xmlns="http://www.w3.org/2000/svg" xmlns:xlink="http://www.w3.org/1999/xlink" x="0px" y="0px"
	 viewBox="0 0 388.73 388.73" style="enable-background:new 0 0 388.73 388.73;" xml:space="preserve">
<g>
	<path style="fill:#C65C05;" d="M388.73,256.134v5.99c0,18.5-15,33.49-33.5,33.49h-56.88c21.34-0.54,38.46-18.01,38.46-39.48H388.73
		z"/>
	<path style="fill:#E77200;" d="M181.93,256.134h154.88c0,21.47-17.12,38.94-38.46,39.48h-1.02H190.9
		C190.76,281.504,187.56,268.144,181.93,256.134z"/>
	<path style="fill:#7C6655;" d="M388.73,83.324v172.81h-206.8c-4.51-9.63-10.59-18.38-17.91-25.93H362.8V95.824H184.46
		c-1.53-9.19-4.46-17.91-8.56-25.93h199.4C382.72,69.894,388.73,75.914,388.73,83.324z"/>
	<path style="fill:#88C9B3;" d="M362.8,95.824v134.38h-77.15c-1.35-8.51-5.4-16.12-11.22-21.94c-7.25-7.27-17.26-11.74-28.32-11.74
		c20.92,0,37.87-16.96,37.87-37.88s-16.95-37.88-37.87-37.88s-37.88,16.96-37.88,37.88s16.96,37.88,37.88,37.88
		c-19.96,0-36.5,14.59-39.55,33.68h-42.54c-0.35-0.37-0.71-0.74-1.07-1.1c-17.27-17.28-41.13-27.96-67.49-27.96
		c49.85,0,90.26-40.41,90.26-90.26c0-5.13-0.43-10.16-1.26-15.06H362.8z"/>
	<path style="fill:#E77200;" d="M246.111,189.01c13.528,0,25.771,5.467,34.638,14.359c7.118,7.118,12.072,16.426,13.723,26.835
		h-96.735C201.468,206.855,221.698,189.01,246.111,189.01z"/>
	<path style="fill:#FCF4DE;" d="M246.11,120.764c20.92,0,37.87,16.96,37.87,37.88s-16.95,37.88-37.87,37.88
		s-37.88-16.96-37.88-37.88S225.19,120.764,246.11,120.764z"/>
	<path style="fill:#FCF4DE;" d="M184.46,95.824c0.83,4.9,1.26,9.93,1.26,15.06c0,49.85-40.41,90.26-90.26,90.26
		c-49.86,0-90.27-40.41-90.27-90.26c0-49.86,40.41-90.27,90.27-90.27c35.09,0,65.51,20.03,80.44,49.28
		C180,77.914,182.93,86.634,184.46,95.824z"/>
	<path style="fill:#665040;" d="M199.73,256.134h-15c-4.51-9.63-10.59-18.38-17.91-25.93h15
		C189.14,237.754,195.22,246.504,199.73,256.134z"/>
	<rect x="142.92" y="323.924" style="fill:#FCF4DE;" width="47.99" height="44.19"/>
	<path style="fill:#7C6655;" d="M142.92,323.925v44.19H0v-82.01c0-52.72,42.74-95.46,95.46-95.46c26.36,0,50.22,10.68,67.49,27.96
		c0.36,0.36,0.72,0.73,1.07,1.1c7.32,7.55,13.4,16.3,17.91,25.93c5.63,12.01,8.83,25.37,8.97,39.48c0.01,0.33,0.01,0.66,0.01,0.99
		v37.82H142.92z"/>
	<path style="fill:#665040;" d="M199.46,95.824h-15c-1.53-9.19-4.46-17.91-8.56-25.93h15C195,77.914,197.93,86.634,199.46,95.824z"
		/>
	<path style="fill:#7C6655;" d="M160.92,114.924c-3.331,0-6.341-2.285-7.223-5.496c-0.866-3.154,0.45-6.587,3.216-8.332
		c5.661-3.571,13.022,1.835,11.232,8.322C167.259,112.633,164.257,114.924,160.92,114.924z"/>
	<path style="fill:#665040;" d="M246.11,90.124c-3.211,0-6.108-2.104-7.121-5.145c-1.067-3.202,0.219-6.854,3.075-8.663
		c5.655-3.583,13.092,1.791,11.264,8.313C252.43,87.834,249.451,90.124,246.11,90.124z"/>
	<path style="fill:#7C6655;" d="M226.729,160.924c-3.006,0-5.771-1.859-6.92-4.63c-1.211-2.921-0.416-6.389,1.956-8.484
		c5.042-4.453,13.259-0.176,12.404,6.537C233.696,158.061,230.486,160.924,226.729,160.924z"/>
	<path style="fill:#7C6655;" d="M256.729,160.924c-3.277,0-6.212-2.199-7.172-5.319c-0.952-3.093,0.281-6.554,2.947-8.371
		c5.542-3.777,13.191,1.443,11.502,8.018C263.16,158.544,260.14,160.924,256.729,160.924z"/>
	<rect x="135.421" y="280.929" style="fill:#665040;" width="15" height="87.187"/>
	<rect x="150.421" y="323.925" style="fill:#E5DCC6;" width="40.489" height="14.61"/>
</g>
<g>
</g>
<g>
</g>
<g>
</g>
<g>
</g>
<g>
</g>
<g>
</g>
<g>
</g>
<g>
</g>
<g>
</g>
<g>
</g>
<g>
</g>
<g>
</g>
<g>
</g>
<g>
</g>
<g>
</g>
</svg>
